<?xml version="1.0" encoding="utf-8" standalone="no"?>
<!DOCTYPE svg PUBLIC "-//W3C//DTD SVG 1.1//EN"
  "http://www.w3.org/Graphics/SVG/1.1/DTD/svg11.dtd">
<svg xmlns:xlink="http://www.w3.org/1999/xlink" width="900pt" height="468pt" viewBox="0 0 900 468" xmlns="http://www.w3.org/2000/svg" version="1.1">
 <metadata>
  <rdf:RDF xmlns:dc="http://purl.org/dc/elements/1.1/" xmlns:cc="http://creativecommons.org/ns#" xmlns:rdf="http://www.w3.org/1999/02/22-rdf-syntax-ns#">
   <cc:Work>
    <dc:type rdf:resource="http://purl.org/dc/dcmitype/StillImage"/>
    <dc:date>2026-05-04T17:00:22.786462</dc:date>
    <dc:format>image/svg+xml</dc:format>
    <dc:creator>
     <cc:Agent>
      <dc:title>Matplotlib v3.10.9, https://matplotlib.org/</dc:title>
     </cc:Agent>
    </dc:creator>
   </cc:Work>
  </rdf:RDF>
 </metadata>
 <defs>
  <style type="text/css">*{stroke-linejoin: round; stroke-linecap: butt}</style>
 </defs>
 <g id="figure_1">
  <g id="patch_1">
   <path d="M 0 468 
L 900 468 
L 900 0 
L 0 0 
z
" style="fill: #ffffff"/>
  </g>
  <g id="axes_1">
   <g id="patch_2">
    <path d="M 57.2 426.4 
L 498.6495 426.4 
L 498.6495 26.1 
L 57.2 26.1 
z
" style="fill: #ffffff"/>
   </g>
   <g id="matplotlib.axis_1">
    <g id="xtick_1">
     <g id="line2d_1">
      <path d="M 74.55428 426.4 
L 74.55428 26.1 
" clip-path="url(#p1ecca19a08)" style="fill: none; stroke: #b0b0b0; stroke-opacity: 0.3; stroke-width: 0.8; stroke-linecap: square"/>
     </g>
     <g id="line2d_2">
      <defs>
       <path id="m4b412a6900" d="M 0 0 
L 0 3.5 
" style="stroke: #000000; stroke-width: 0.8"/>
      </defs>
      <g>
       <use xlink:href="#m4b412a6900" x="74.55428" y="426.4" style="stroke: #000000; stroke-width: 0.8"/>
      </g>
     </g>
     <g id="text_1">
      <!-- 0 -->
      <g transform="translate(71.37303 440.998438) scale(0.1 -0.1)">
       <defs>
        <path id="DejaVuSans-30" d="M 2034 4250 
Q 1547 4250 1301 3770 
Q 1056 3291 1056 2328 
Q 1056 1369 1301 889 
Q 1547 409 2034 409 
Q 2525 409 2770 889 
Q 3016 1369 3016 2328 
Q 3016 3291 2770 3770 
Q 2525 4250 2034 4250 
z
M 2034 4750 
Q 2819 4750 3233 4129 
Q 3647 3509 3647 2328 
Q 3647 1150 3233 529 
Q 2819 -91 2034 -91 
Q 1250 -91 836 529 
Q 422 1150 422 2328 
Q 422 3509 836 4129 
Q 1250 4750 2034 4750 
z
" transform="scale(0.015625)"/>
       </defs>
       <use xlink:href="#DejaVuSans-30"/>
      </g>
     </g>
    </g>
    <g id="xtick_2">
     <g id="line2d_3">
      <path d="M 128.786405 426.4 
L 128.786405 26.1 
" clip-path="url(#p1ecca19a08)" style="fill: none; stroke: #b0b0b0; stroke-opacity: 0.3; stroke-width: 0.8; stroke-linecap: square"/>
     </g>
     <g id="line2d_4">
      <g>
       <use xlink:href="#m4b412a6900" x="128.786405" y="426.4" style="stroke: #000000; stroke-width: 0.8"/>
      </g>
     </g>
     <g id="text_2">
      <!-- 10 -->
      <g transform="translate(122.423905 440.998438) scale(0.1 -0.1)">
       <defs>
        <path id="DejaVuSans-31" d="M 794 531 
L 1825 531 
L 1825 4091 
L 703 3866 
L 703 4441 
L 1819 4666 
L 2450 4666 
L 2450 531 
L 3481 531 
L 3481 0 
L 794 0 
L 794 531 
z
" transform="scale(0.015625)"/>
       </defs>
       <use xlink:href="#DejaVuSans-31"/>
       <use xlink:href="#DejaVuSans-30" transform="translate(63.623047 0)"/>
      </g>
     </g>
    </g>
    <g id="xtick_3">
     <g id="line2d_5">
      <path d="M 183.018531 426.4 
L 183.018531 26.1 
" clip-path="url(#p1ecca19a08)" style="fill: none; stroke: #b0b0b0; stroke-opacity: 0.3; stroke-width: 0.8; stroke-linecap: square"/>
     </g>
     <g id="line2d_6">
      <g>
       <use xlink:href="#m4b412a6900" x="183.018531" y="426.4" style="stroke: #000000; stroke-width: 0.8"/>
      </g>
     </g>
     <g id="text_3">
      <!-- 20 -->
      <g transform="translate(176.656031 440.998438) scale(0.1 -0.1)">
       <defs>
        <path id="DejaVuSans-32" d="M 1228 531 
L 3431 531 
L 3431 0 
L 469 0 
L 469 531 
Q 828 903 1448 1529 
Q 2069 2156 2228 2338 
Q 2531 2678 2651 2914 
Q 2772 3150 2772 3378 
Q 2772 3750 2511 3984 
Q 2250 4219 1831 4219 
Q 1534 4219 1204 4116 
Q 875 4013 500 3803 
L 500 4441 
Q 881 4594 1212 4672 
Q 1544 4750 1819 4750 
Q 2544 4750 2975 4387 
Q 3406 4025 3406 3419 
Q 3406 3131 3298 2873 
Q 3191 2616 2906 2266 
Q 2828 2175 2409 1742 
Q 1991 1309 1228 531 
z
" transform="scale(0.015625)"/>
       </defs>
       <use xlink:href="#DejaVuSans-32"/>
       <use xlink:href="#DejaVuSans-30" transform="translate(63.623047 0)"/>
      </g>
     </g>
    </g>
    <g id="xtick_4">
     <g id="line2d_7">
      <path d="M 237.250656 426.4 
L 237.250656 26.1 
" clip-path="url(#p1ecca19a08)" style="fill: none; stroke: #b0b0b0; stroke-opacity: 0.3; stroke-width: 0.8; stroke-linecap: square"/>
     </g>
     <g id="line2d_8">
      <g>
       <use xlink:href="#m4b412a6900" x="237.250656" y="426.4" style="stroke: #000000; stroke-width: 0.8"/>
      </g>
     </g>
     <g id="text_4">
      <!-- 30 -->
      <g transform="translate(230.888156 440.998438) scale(0.1 -0.1)">
       <defs>
        <path id="DejaVuSans-33" d="M 2597 2516 
Q 3050 2419 3304 2112 
Q 3559 1806 3559 1356 
Q 3559 666 3084 287 
Q 2609 -91 1734 -91 
Q 1441 -91 1130 -33 
Q 819 25 488 141 
L 488 750 
Q 750 597 1062 519 
Q 1375 441 1716 441 
Q 2309 441 2620 675 
Q 2931 909 2931 1356 
Q 2931 1769 2642 2001 
Q 2353 2234 1838 2234 
L 1294 2234 
L 1294 2753 
L 1863 2753 
Q 2328 2753 2575 2939 
Q 2822 3125 2822 3475 
Q 2822 3834 2567 4026 
Q 2313 4219 1838 4219 
Q 1578 4219 1281 4162 
Q 984 4106 628 3988 
L 628 4550 
Q 988 4650 1302 4700 
Q 1616 4750 1894 4750 
Q 2613 4750 3031 4423 
Q 3450 4097 3450 3541 
Q 3450 3153 3228 2886 
Q 3006 2619 2597 2516 
z
" transform="scale(0.015625)"/>
       </defs>
       <use xlink:href="#DejaVuSans-33"/>
       <use xlink:href="#DejaVuSans-30" transform="translate(63.623047 0)"/>
      </g>
     </g>
    </g>
    <g id="xtick_5">
     <g id="line2d_9">
      <path d="M 291.482781 426.4 
L 291.482781 26.1 
" clip-path="url(#p1ecca19a08)" style="fill: none; stroke: #b0b0b0; stroke-opacity: 0.3; stroke-width: 0.8; stroke-linecap: square"/>
     </g>
     <g id="line2d_10">
      <g>
       <use xlink:href="#m4b412a6900" x="291.482781" y="426.4" style="stroke: #000000; stroke-width: 0.8"/>
      </g>
     </g>
     <g id="text_5">
      <!-- 40 -->
      <g transform="translate(285.120281 440.998438) scale(0.1 -0.1)">
       <defs>
        <path id="DejaVuSans-34" d="M 2419 4116 
L 825 1625 
L 2419 1625 
L 2419 4116 
z
M 2253 4666 
L 3047 4666 
L 3047 1625 
L 3713 1625 
L 3713 1100 
L 3047 1100 
L 3047 0 
L 2419 0 
L 2419 1100 
L 313 1100 
L 313 1709 
L 2253 4666 
z
" transform="scale(0.015625)"/>
       </defs>
       <use xlink:href="#DejaVuSans-34"/>
       <use xlink:href="#DejaVuSans-30" transform="translate(63.623047 0)"/>
      </g>
     </g>
    </g>
    <g id="xtick_6">
     <g id="line2d_11">
      <path d="M 345.714907 426.4 
L 345.714907 26.1 
" clip-path="url(#p1ecca19a08)" style="fill: none; stroke: #b0b0b0; stroke-opacity: 0.3; stroke-width: 0.8; stroke-linecap: square"/>
     </g>
     <g id="line2d_12">
      <g>
       <use xlink:href="#m4b412a6900" x="345.714907" y="426.4" style="stroke: #000000; stroke-width: 0.8"/>
      </g>
     </g>
     <g id="text_6">
      <!-- 50 -->
      <g transform="translate(339.352407 440.998438) scale(0.1 -0.1)">
       <defs>
        <path id="DejaVuSans-35" d="M 691 4666 
L 3169 4666 
L 3169 4134 
L 1269 4134 
L 1269 2991 
Q 1406 3038 1543 3061 
Q 1681 3084 1819 3084 
Q 2600 3084 3056 2656 
Q 3513 2228 3513 1497 
Q 3513 744 3044 326 
Q 2575 -91 1722 -91 
Q 1428 -91 1123 -41 
Q 819 9 494 109 
L 494 744 
Q 775 591 1075 516 
Q 1375 441 1709 441 
Q 2250 441 2565 725 
Q 2881 1009 2881 1497 
Q 2881 1984 2565 2268 
Q 2250 2553 1709 2553 
Q 1456 2553 1204 2497 
Q 953 2441 691 2322 
L 691 4666 
z
" transform="scale(0.015625)"/>
       </defs>
       <use xlink:href="#DejaVuSans-35"/>
       <use xlink:href="#DejaVuSans-30" transform="translate(63.623047 0)"/>
      </g>
     </g>
    </g>
    <g id="xtick_7">
     <g id="line2d_13">
      <path d="M 399.947032 426.4 
L 399.947032 26.1 
" clip-path="url(#p1ecca19a08)" style="fill: none; stroke: #b0b0b0; stroke-opacity: 0.3; stroke-width: 0.8; stroke-linecap: square"/>
     </g>
     <g id="line2d_14">
      <g>
       <use xlink:href="#m4b412a6900" x="399.947032" y="426.4" style="stroke: #000000; stroke-width: 0.8"/>
      </g>
     </g>
     <g id="text_7">
      <!-- 60 -->
      <g transform="translate(393.584532 440.998438) scale(0.1 -0.1)">
       <defs>
        <path id="DejaVuSans-36" d="M 2113 2584 
Q 1688 2584 1439 2293 
Q 1191 2003 1191 1497 
Q 1191 994 1439 701 
Q 1688 409 2113 409 
Q 2538 409 2786 701 
Q 3034 994 3034 1497 
Q 3034 2003 2786 2293 
Q 2538 2584 2113 2584 
z
M 3366 4563 
L 3366 3988 
Q 3128 4100 2886 4159 
Q 2644 4219 2406 4219 
Q 1781 4219 1451 3797 
Q 1122 3375 1075 2522 
Q 1259 2794 1537 2939 
Q 1816 3084 2150 3084 
Q 2853 3084 3261 2657 
Q 3669 2231 3669 1497 
Q 3669 778 3244 343 
Q 2819 -91 2113 -91 
Q 1303 -91 875 529 
Q 447 1150 447 2328 
Q 447 3434 972 4092 
Q 1497 4750 2381 4750 
Q 2619 4750 2861 4703 
Q 3103 4656 3366 4563 
z
" transform="scale(0.015625)"/>
       </defs>
       <use xlink:href="#DejaVuSans-36"/>
       <use xlink:href="#DejaVuSans-30" transform="translate(63.623047 0)"/>
      </g>
     </g>
    </g>
    <g id="xtick_8">
     <g id="line2d_15">
      <path d="M 454.179157 426.4 
L 454.179157 26.1 
" clip-path="url(#p1ecca19a08)" style="fill: none; stroke: #b0b0b0; stroke-opacity: 0.3; stroke-width: 0.8; stroke-linecap: square"/>
     </g>
     <g id="line2d_16">
      <g>
       <use xlink:href="#m4b412a6900" x="454.179157" y="426.4" style="stroke: #000000; stroke-width: 0.8"/>
      </g>
     </g>
     <g id="text_8">
      <!-- 70 -->
      <g transform="translate(447.816657 440.998438) scale(0.1 -0.1)">
       <defs>
        <path id="DejaVuSans-37" d="M 525 4666 
L 3525 4666 
L 3525 4397 
L 1831 0 
L 1172 0 
L 2766 4134 
L 525 4134 
L 525 4666 
z
" transform="scale(0.015625)"/>
       </defs>
       <use xlink:href="#DejaVuSans-37"/>
       <use xlink:href="#DejaVuSans-30" transform="translate(63.623047 0)"/>
      </g>
     </g>
    </g>
    <g id="text_9">
     <!-- time since test start (s) -->
     <g transform="translate(219.531781 454.676562) scale(0.1 -0.1)">
      <defs>
       <path id="DejaVuSans-74" d="M 1172 4494 
L 1172 3500 
L 2356 3500 
L 2356 3053 
L 1172 3053 
L 1172 1153 
Q 1172 725 1289 603 
Q 1406 481 1766 481 
L 2356 481 
L 2356 0 
L 1766 0 
Q 1100 0 847 248 
Q 594 497 594 1153 
L 594 3053 
L 172 3053 
L 172 3500 
L 594 3500 
L 594 4494 
L 1172 4494 
z
" transform="scale(0.015625)"/>
       <path id="DejaVuSans-69" d="M 603 3500 
L 1178 3500 
L 1178 0 
L 603 0 
L 603 3500 
z
M 603 4863 
L 1178 4863 
L 1178 4134 
L 603 4134 
L 603 4863 
z
" transform="scale(0.015625)"/>
       <path id="DejaVuSans-6d" d="M 3328 2828 
Q 3544 3216 3844 3400 
Q 4144 3584 4550 3584 
Q 5097 3584 5394 3201 
Q 5691 2819 5691 2113 
L 5691 0 
L 5113 0 
L 5113 2094 
Q 5113 2597 4934 2840 
Q 4756 3084 4391 3084 
Q 3944 3084 3684 2787 
Q 3425 2491 3425 1978 
L 3425 0 
L 2847 0 
L 2847 2094 
Q 2847 2600 2669 2842 
Q 2491 3084 2119 3084 
Q 1678 3084 1418 2786 
Q 1159 2488 1159 1978 
L 1159 0 
L 581 0 
L 581 3500 
L 1159 3500 
L 1159 2956 
Q 1356 3278 1631 3431 
Q 1906 3584 2284 3584 
Q 2666 3584 2933 3390 
Q 3200 3197 3328 2828 
z
" transform="scale(0.015625)"/>
       <path id="DejaVuSans-65" d="M 3597 1894 
L 3597 1613 
L 953 1613 
Q 991 1019 1311 708 
Q 1631 397 2203 397 
Q 2534 397 2845 478 
Q 3156 559 3463 722 
L 3463 178 
Q 3153 47 2828 -22 
Q 2503 -91 2169 -91 
Q 1331 -91 842 396 
Q 353 884 353 1716 
Q 353 2575 817 3079 
Q 1281 3584 2069 3584 
Q 2775 3584 3186 3129 
Q 3597 2675 3597 1894 
z
M 3022 2063 
Q 3016 2534 2758 2815 
Q 2500 3097 2075 3097 
Q 1594 3097 1305 2825 
Q 1016 2553 972 2059 
L 3022 2063 
z
" transform="scale(0.015625)"/>
       <path id="DejaVuSans-20" transform="scale(0.015625)"/>
       <path id="DejaVuSans-73" d="M 2834 3397 
L 2834 2853 
Q 2591 2978 2328 3040 
Q 2066 3103 1784 3103 
Q 1356 3103 1142 2972 
Q 928 2841 928 2578 
Q 928 2378 1081 2264 
Q 1234 2150 1697 2047 
L 1894 2003 
Q 2506 1872 2764 1633 
Q 3022 1394 3022 966 
Q 3022 478 2636 193 
Q 2250 -91 1575 -91 
Q 1294 -91 989 -36 
Q 684 19 347 128 
L 347 722 
Q 666 556 975 473 
Q 1284 391 1588 391 
Q 1994 391 2212 530 
Q 2431 669 2431 922 
Q 2431 1156 2273 1281 
Q 2116 1406 1581 1522 
L 1381 1569 
Q 847 1681 609 1914 
Q 372 2147 372 2553 
Q 372 3047 722 3315 
Q 1072 3584 1716 3584 
Q 2034 3584 2315 3537 
Q 2597 3491 2834 3397 
z
" transform="scale(0.015625)"/>
       <path id="DejaVuSans-6e" d="M 3513 2113 
L 3513 0 
L 2938 0 
L 2938 2094 
Q 2938 2591 2744 2837 
Q 2550 3084 2163 3084 
Q 1697 3084 1428 2787 
Q 1159 2491 1159 1978 
L 1159 0 
L 581 0 
L 581 3500 
L 1159 3500 
L 1159 2956 
Q 1366 3272 1645 3428 
Q 1925 3584 2291 3584 
Q 2894 3584 3203 3211 
Q 3513 2838 3513 2113 
z
" transform="scale(0.015625)"/>
       <path id="DejaVuSans-63" d="M 3122 3366 
L 3122 2828 
Q 2878 2963 2633 3030 
Q 2388 3097 2138 3097 
Q 1578 3097 1268 2742 
Q 959 2388 959 1747 
Q 959 1106 1268 751 
Q 1578 397 2138 397 
Q 2388 397 2633 464 
Q 2878 531 3122 666 
L 3122 134 
Q 2881 22 2623 -34 
Q 2366 -91 2075 -91 
Q 1284 -91 818 406 
Q 353 903 353 1747 
Q 353 2603 823 3093 
Q 1294 3584 2113 3584 
Q 2378 3584 2631 3529 
Q 2884 3475 3122 3366 
z
" transform="scale(0.015625)"/>
       <path id="DejaVuSans-61" d="M 2194 1759 
Q 1497 1759 1228 1600 
Q 959 1441 959 1056 
Q 959 750 1161 570 
Q 1363 391 1709 391 
Q 2188 391 2477 730 
Q 2766 1069 2766 1631 
L 2766 1759 
L 2194 1759 
z
M 3341 1997 
L 3341 0 
L 2766 0 
L 2766 531 
Q 2569 213 2275 61 
Q 1981 -91 1556 -91 
Q 1019 -91 701 211 
Q 384 513 384 1019 
Q 384 1609 779 1909 
Q 1175 2209 1959 2209 
L 2766 2209 
L 2766 2266 
Q 2766 2663 2505 2880 
Q 2244 3097 1772 3097 
Q 1472 3097 1187 3025 
Q 903 2953 641 2809 
L 641 3341 
Q 956 3463 1253 3523 
Q 1550 3584 1831 3584 
Q 2591 3584 2966 3190 
Q 3341 2797 3341 1997 
z
" transform="scale(0.015625)"/>
       <path id="DejaVuSans-72" d="M 2631 2963 
Q 2534 3019 2420 3045 
Q 2306 3072 2169 3072 
Q 1681 3072 1420 2755 
Q 1159 2438 1159 1844 
L 1159 0 
L 581 0 
L 581 3500 
L 1159 3500 
L 1159 2956 
Q 1341 3275 1631 3429 
Q 1922 3584 2338 3584 
Q 2397 3584 2469 3576 
Q 2541 3569 2628 3553 
L 2631 2963 
z
" transform="scale(0.015625)"/>
       <path id="DejaVuSans-28" d="M 1984 4856 
Q 1566 4138 1362 3434 
Q 1159 2731 1159 2009 
Q 1159 1288 1364 580 
Q 1569 -128 1984 -844 
L 1484 -844 
Q 1016 -109 783 600 
Q 550 1309 550 2009 
Q 550 2706 781 3412 
Q 1013 4119 1484 4856 
L 1984 4856 
z
" transform="scale(0.015625)"/>
       <path id="DejaVuSans-29" d="M 513 4856 
L 1013 4856 
Q 1481 4119 1714 3412 
Q 1947 2706 1947 2009 
Q 1947 1309 1714 600 
Q 1481 -109 1013 -844 
L 513 -844 
Q 928 -128 1133 580 
Q 1338 1288 1338 2009 
Q 1338 2731 1133 3434 
Q 928 4138 513 4856 
z
" transform="scale(0.015625)"/>
      </defs>
      <use xlink:href="#DejaVuSans-74"/>
      <use xlink:href="#DejaVuSans-69" transform="translate(39.208984 0)"/>
      <use xlink:href="#DejaVuSans-6d" transform="translate(66.992188 0)"/>
      <use xlink:href="#DejaVuSans-65" transform="translate(164.404297 0)"/>
      <use xlink:href="#DejaVuSans-20" transform="translate(225.927734 0)"/>
      <use xlink:href="#DejaVuSans-73" transform="translate(257.714844 0)"/>
      <use xlink:href="#DejaVuSans-69" transform="translate(309.814453 0)"/>
      <use xlink:href="#DejaVuSans-6e" transform="translate(337.597656 0)"/>
      <use xlink:href="#DejaVuSans-63" transform="translate(400.976562 0)"/>
      <use xlink:href="#DejaVuSans-65" transform="translate(455.957031 0)"/>
      <use xlink:href="#DejaVuSans-20" transform="translate(517.480469 0)"/>
      <use xlink:href="#DejaVuSans-74" transform="translate(549.267578 0)"/>
      <use xlink:href="#DejaVuSans-65" transform="translate(588.476562 0)"/>
      <use xlink:href="#DejaVuSans-73" transform="translate(650 0)"/>
      <use xlink:href="#DejaVuSans-74" transform="translate(702.099609 0)"/>
      <use xlink:href="#DejaVuSans-20" transform="translate(741.308594 0)"/>
      <use xlink:href="#DejaVuSans-73" transform="translate(773.095703 0)"/>
      <use xlink:href="#DejaVuSans-74" transform="translate(825.195312 0)"/>
      <use xlink:href="#DejaVuSans-61" transform="translate(864.404297 0)"/>
      <use xlink:href="#DejaVuSans-72" transform="translate(925.683594 0)"/>
      <use xlink:href="#DejaVuSans-74" transform="translate(966.796875 0)"/>
      <use xlink:href="#DejaVuSans-20" transform="translate(1006.005859 0)"/>
      <use xlink:href="#DejaVuSans-28" transform="translate(1037.792969 0)"/>
      <use xlink:href="#DejaVuSans-73" transform="translate(1076.806641 0)"/>
      <use xlink:href="#DejaVuSans-29" transform="translate(1128.90625 0)"/>
     </g>
    </g>
   </g>
   <g id="matplotlib.axis_2">
    <g id="ytick_1">
     <g id="line2d_17">
      <path d="M 57.2 408.204545 
L 498.6495 408.204545 
" clip-path="url(#p1ecca19a08)" style="fill: none; stroke: #b0b0b0; stroke-opacity: 0.3; stroke-width: 0.8; stroke-linecap: square"/>
     </g>
     <g id="line2d_18">
      <defs>
       <path id="m473b9120ba" d="M 0 0 
L -3.5 0 
" style="stroke: #000000; stroke-width: 0.8"/>
      </defs>
      <g>
       <use xlink:href="#m473b9120ba" x="57.2" y="408.204545" style="stroke: #000000; stroke-width: 0.8"/>
      </g>
     </g>
     <g id="text_10">
      <!-- 0 -->
      <g transform="translate(43.8375 412.003764) scale(0.1 -0.1)">
       <use xlink:href="#DejaVuSans-30"/>
      </g>
     </g>
    </g>
    <g id="ytick_2">
     <g id="line2d_19">
      <path d="M 57.2 335.495436 
L 498.6495 335.495436 
" clip-path="url(#p1ecca19a08)" style="fill: none; stroke: #b0b0b0; stroke-opacity: 0.3; stroke-width: 0.8; stroke-linecap: square"/>
     </g>
     <g id="line2d_20">
      <g>
       <use xlink:href="#m473b9120ba" x="57.2" y="335.495436" style="stroke: #000000; stroke-width: 0.8"/>
      </g>
     </g>
     <g id="text_11">
      <!-- 200 -->
      <g transform="translate(31.1125 339.294655) scale(0.1 -0.1)">
       <use xlink:href="#DejaVuSans-32"/>
       <use xlink:href="#DejaVuSans-30" transform="translate(63.623047 0)"/>
       <use xlink:href="#DejaVuSans-30" transform="translate(127.246094 0)"/>
      </g>
     </g>
    </g>
    <g id="ytick_3">
     <g id="line2d_21">
      <path d="M 57.2 262.786327 
L 498.6495 262.786327 
" clip-path="url(#p1ecca19a08)" style="fill: none; stroke: #b0b0b0; stroke-opacity: 0.3; stroke-width: 0.8; stroke-linecap: square"/>
     </g>
     <g id="line2d_22">
      <g>
       <use xlink:href="#m473b9120ba" x="57.2" y="262.786327" style="stroke: #000000; stroke-width: 0.8"/>
      </g>
     </g>
     <g id="text_12">
      <!-- 400 -->
      <g transform="translate(31.1125 266.585546) scale(0.1 -0.1)">
       <use xlink:href="#DejaVuSans-34"/>
       <use xlink:href="#DejaVuSans-30" transform="translate(63.623047 0)"/>
       <use xlink:href="#DejaVuSans-30" transform="translate(127.246094 0)"/>
      </g>
     </g>
    </g>
    <g id="ytick_4">
     <g id="line2d_23">
      <path d="M 57.2 190.077218 
L 498.6495 190.077218 
" clip-path="url(#p1ecca19a08)" style="fill: none; stroke: #b0b0b0; stroke-opacity: 0.3; stroke-width: 0.8; stroke-linecap: square"/>
     </g>
     <g id="line2d_24">
      <g>
       <use xlink:href="#m473b9120ba" x="57.2" y="190.077218" style="stroke: #000000; stroke-width: 0.8"/>
      </g>
     </g>
     <g id="text_13">
      <!-- 600 -->
      <g transform="translate(31.1125 193.876437) scale(0.1 -0.1)">
       <use xlink:href="#DejaVuSans-36"/>
       <use xlink:href="#DejaVuSans-30" transform="translate(63.623047 0)"/>
       <use xlink:href="#DejaVuSans-30" transform="translate(127.246094 0)"/>
      </g>
     </g>
    </g>
    <g id="ytick_5">
     <g id="line2d_25">
      <path d="M 57.2 117.368109 
L 498.6495 117.368109 
" clip-path="url(#p1ecca19a08)" style="fill: none; stroke: #b0b0b0; stroke-opacity: 0.3; stroke-width: 0.8; stroke-linecap: square"/>
     </g>
     <g id="line2d_26">
      <g>
       <use xlink:href="#m473b9120ba" x="57.2" y="117.368109" style="stroke: #000000; stroke-width: 0.8"/>
      </g>
     </g>
     <g id="text_14">
      <!-- 800 -->
      <g transform="translate(31.1125 121.167328) scale(0.1 -0.1)">
       <defs>
        <path id="DejaVuSans-38" d="M 2034 2216 
Q 1584 2216 1326 1975 
Q 1069 1734 1069 1313 
Q 1069 891 1326 650 
Q 1584 409 2034 409 
Q 2484 409 2743 651 
Q 3003 894 3003 1313 
Q 3003 1734 2745 1975 
Q 2488 2216 2034 2216 
z
M 1403 2484 
Q 997 2584 770 2862 
Q 544 3141 544 3541 
Q 544 4100 942 4425 
Q 1341 4750 2034 4750 
Q 2731 4750 3128 4425 
Q 3525 4100 3525 3541 
Q 3525 3141 3298 2862 
Q 3072 2584 2669 2484 
Q 3125 2378 3379 2068 
Q 3634 1759 3634 1313 
Q 3634 634 3220 271 
Q 2806 -91 2034 -91 
Q 1263 -91 848 271 
Q 434 634 434 1313 
Q 434 1759 690 2068 
Q 947 2378 1403 2484 
z
M 1172 3481 
Q 1172 3119 1398 2916 
Q 1625 2713 2034 2713 
Q 2441 2713 2670 2916 
Q 2900 3119 2900 3481 
Q 2900 3844 2670 4047 
Q 2441 4250 2034 4250 
Q 1625 4250 1398 4047 
Q 1172 3844 1172 3481 
z
" transform="scale(0.015625)"/>
       </defs>
       <use xlink:href="#DejaVuSans-38"/>
       <use xlink:href="#DejaVuSans-30" transform="translate(63.623047 0)"/>
       <use xlink:href="#DejaVuSans-30" transform="translate(127.246094 0)"/>
      </g>
     </g>
    </g>
    <g id="ytick_6">
     <g id="line2d_27">
      <path d="M 57.2 44.659 
L 498.6495 44.659 
" clip-path="url(#p1ecca19a08)" style="fill: none; stroke: #b0b0b0; stroke-opacity: 0.3; stroke-width: 0.8; stroke-linecap: square"/>
     </g>
     <g id="line2d_28">
      <g>
       <use xlink:href="#m473b9120ba" x="57.2" y="44.659" style="stroke: #000000; stroke-width: 0.8"/>
      </g>
     </g>
     <g id="text_15">
      <!-- 1000 -->
      <g transform="translate(24.75 48.458219) scale(0.1 -0.1)">
       <use xlink:href="#DejaVuSans-31"/>
       <use xlink:href="#DejaVuSans-30" transform="translate(63.623047 0)"/>
       <use xlink:href="#DejaVuSans-30" transform="translate(127.246094 0)"/>
       <use xlink:href="#DejaVuSans-30" transform="translate(190.869141 0)"/>
      </g>
     </g>
    </g>
    <g id="text_16">
     <!-- completed requests per second (1 s bins) -->
     <g transform="translate(18.670312 330.085938) rotate(-90) scale(0.1 -0.1)">
      <defs>
       <path id="DejaVuSans-6f" d="M 1959 3097 
Q 1497 3097 1228 2736 
Q 959 2375 959 1747 
Q 959 1119 1226 758 
Q 1494 397 1959 397 
Q 2419 397 2687 759 
Q 2956 1122 2956 1747 
Q 2956 2369 2687 2733 
Q 2419 3097 1959 3097 
z
M 1959 3584 
Q 2709 3584 3137 3096 
Q 3566 2609 3566 1747 
Q 3566 888 3137 398 
Q 2709 -91 1959 -91 
Q 1206 -91 779 398 
Q 353 888 353 1747 
Q 353 2609 779 3096 
Q 1206 3584 1959 3584 
z
" transform="scale(0.015625)"/>
       <path id="DejaVuSans-70" d="M 1159 525 
L 1159 -1331 
L 581 -1331 
L 581 3500 
L 1159 3500 
L 1159 2969 
Q 1341 3281 1617 3432 
Q 1894 3584 2278 3584 
Q 2916 3584 3314 3078 
Q 3713 2572 3713 1747 
Q 3713 922 3314 415 
Q 2916 -91 2278 -91 
Q 1894 -91 1617 61 
Q 1341 213 1159 525 
z
M 3116 1747 
Q 3116 2381 2855 2742 
Q 2594 3103 2138 3103 
Q 1681 3103 1420 2742 
Q 1159 2381 1159 1747 
Q 1159 1113 1420 752 
Q 1681 391 2138 391 
Q 2594 391 2855 752 
Q 3116 1113 3116 1747 
z
" transform="scale(0.015625)"/>
       <path id="DejaVuSans-6c" d="M 603 4863 
L 1178 4863 
L 1178 0 
L 603 0 
L 603 4863 
z
" transform="scale(0.015625)"/>
       <path id="DejaVuSans-64" d="M 2906 2969 
L 2906 4863 
L 3481 4863 
L 3481 0 
L 2906 0 
L 2906 525 
Q 2725 213 2448 61 
Q 2172 -91 1784 -91 
Q 1150 -91 751 415 
Q 353 922 353 1747 
Q 353 2572 751 3078 
Q 1150 3584 1784 3584 
Q 2172 3584 2448 3432 
Q 2725 3281 2906 2969 
z
M 947 1747 
Q 947 1113 1208 752 
Q 1469 391 1925 391 
Q 2381 391 2643 752 
Q 2906 1113 2906 1747 
Q 2906 2381 2643 2742 
Q 2381 3103 1925 3103 
Q 1469 3103 1208 2742 
Q 947 2381 947 1747 
z
" transform="scale(0.015625)"/>
       <path id="DejaVuSans-71" d="M 947 1747 
Q 947 1113 1208 752 
Q 1469 391 1925 391 
Q 2381 391 2643 752 
Q 2906 1113 2906 1747 
Q 2906 2381 2643 2742 
Q 2381 3103 1925 3103 
Q 1469 3103 1208 2742 
Q 947 2381 947 1747 
z
M 2906 525 
Q 2725 213 2448 61 
Q 2172 -91 1784 -91 
Q 1150 -91 751 415 
Q 353 922 353 1747 
Q 353 2572 751 3078 
Q 1150 3584 1784 3584 
Q 2172 3584 2448 3432 
Q 2725 3281 2906 2969 
L 2906 3500 
L 3481 3500 
L 3481 -1331 
L 2906 -1331 
L 2906 525 
z
" transform="scale(0.015625)"/>
       <path id="DejaVuSans-75" d="M 544 1381 
L 544 3500 
L 1119 3500 
L 1119 1403 
Q 1119 906 1312 657 
Q 1506 409 1894 409 
Q 2359 409 2629 706 
Q 2900 1003 2900 1516 
L 2900 3500 
L 3475 3500 
L 3475 0 
L 2900 0 
L 2900 538 
Q 2691 219 2414 64 
Q 2138 -91 1772 -91 
Q 1169 -91 856 284 
Q 544 659 544 1381 
z
M 1991 3584 
L 1991 3584 
z
" transform="scale(0.015625)"/>
       <path id="DejaVuSans-62" d="M 3116 1747 
Q 3116 2381 2855 2742 
Q 2594 3103 2138 3103 
Q 1681 3103 1420 2742 
Q 1159 2381 1159 1747 
Q 1159 1113 1420 752 
Q 1681 391 2138 391 
Q 2594 391 2855 752 
Q 3116 1113 3116 1747 
z
M 1159 2969 
Q 1341 3281 1617 3432 
Q 1894 3584 2278 3584 
Q 2916 3584 3314 3078 
Q 3713 2572 3713 1747 
Q 3713 922 3314 415 
Q 2916 -91 2278 -91 
Q 1894 -91 1617 61 
Q 1341 213 1159 525 
L 1159 0 
L 581 0 
L 581 4863 
L 1159 4863 
L 1159 2969 
z
" transform="scale(0.015625)"/>
      </defs>
      <use xlink:href="#DejaVuSans-63"/>
      <use xlink:href="#DejaVuSans-6f" transform="translate(54.980469 0)"/>
      <use xlink:href="#DejaVuSans-6d" transform="translate(116.162109 0)"/>
      <use xlink:href="#DejaVuSans-70" transform="translate(213.574219 0)"/>
      <use xlink:href="#DejaVuSans-6c" transform="translate(277.050781 0)"/>
      <use xlink:href="#DejaVuSans-65" transform="translate(304.833984 0)"/>
      <use xlink:href="#DejaVuSans-74" transform="translate(366.357422 0)"/>
      <use xlink:href="#DejaVuSans-65" transform="translate(405.566406 0)"/>
      <use xlink:href="#DejaVuSans-64" transform="translate(467.089844 0)"/>
      <use xlink:href="#DejaVuSans-20" transform="translate(530.566406 0)"/>
      <use xlink:href="#DejaVuSans-72" transform="translate(562.353516 0)"/>
      <use xlink:href="#DejaVuSans-65" transform="translate(601.216797 0)"/>
      <use xlink:href="#DejaVuSans-71" transform="translate(662.740234 0)"/>
      <use xlink:href="#DejaVuSans-75" transform="translate(726.216797 0)"/>
      <use xlink:href="#DejaVuSans-65" transform="translate(789.595703 0)"/>
      <use xlink:href="#DejaVuSans-73" transform="translate(851.119141 0)"/>
      <use xlink:href="#DejaVuSans-74" transform="translate(903.21875 0)"/>
      <use xlink:href="#DejaVuSans-73" transform="translate(942.427734 0)"/>
      <use xlink:href="#DejaVuSans-20" transform="translate(994.527344 0)"/>
      <use xlink:href="#DejaVuSans-70" transform="translate(1026.314453 0)"/>
      <use xlink:href="#DejaVuSans-65" transform="translate(1089.791016 0)"/>
      <use xlink:href="#DejaVuSans-72" transform="translate(1151.314453 0)"/>
      <use xlink:href="#DejaVuSans-20" transform="translate(1192.427734 0)"/>
      <use xlink:href="#DejaVuSans-73" transform="translate(1224.214844 0)"/>
      <use xlink:href="#DejaVuSans-65" transform="translate(1276.314453 0)"/>
      <use xlink:href="#DejaVuSans-63" transform="translate(1337.837891 0)"/>
      <use xlink:href="#DejaVuSans-6f" transform="translate(1392.818359 0)"/>
      <use xlink:href="#DejaVuSans-6e" transform="translate(1454 0)"/>
      <use xlink:href="#DejaVuSans-64" transform="translate(1517.378906 0)"/>
      <use xlink:href="#DejaVuSans-20" transform="translate(1580.855469 0)"/>
      <use xlink:href="#DejaVuSans-28" transform="translate(1612.642578 0)"/>
      <use xlink:href="#DejaVuSans-31" transform="translate(1651.65625 0)"/>
      <use xlink:href="#DejaVuSans-20" transform="translate(1715.279297 0)"/>
      <use xlink:href="#DejaVuSans-73" transform="translate(1747.066406 0)"/>
      <use xlink:href="#DejaVuSans-20" transform="translate(1799.166016 0)"/>
      <use xlink:href="#DejaVuSans-62" transform="translate(1830.953125 0)"/>
      <use xlink:href="#DejaVuSans-69" transform="translate(1894.429688 0)"/>
      <use xlink:href="#DejaVuSans-6e" transform="translate(1922.212891 0)"/>
      <use xlink:href="#DejaVuSans-73" transform="translate(1985.591797 0)"/>
      <use xlink:href="#DejaVuSans-29" transform="translate(2037.691406 0)"/>
     </g>
    </g>
   </g>
   <g id="line2d_29">
    <path d="M 77.265886 120.640019 
L 82.689099 106.461743 
L 88.112311 121.003565 
L 93.535524 113.732654 
L 98.958736 119.185837 
L 104.381949 111.914926 
L 109.805162 106.461743 
L 115.228374 106.461743 
L 120.651587 106.098197 
L 126.074799 117.368109 
L 131.498012 124.63902 
L 136.921224 106.461743 
L 142.344437 102.826287 
L 147.767649 99.190832 
L 153.190862 106.461743 
L 158.614074 113.732654 
L 164.037287 106.461743 
L 169.460499 113.732654 
L 174.883712 106.461743 
L 180.306924 106.461743 
L 185.730137 113.732654 
L 191.15335 112.278472 
L 196.576562 113.732654 
L 201.999775 113.732654 
L 207.422987 124.63902 
L 212.8462 106.461743 
L 218.269412 110.097198 
L 223.692625 113.732654 
L 229.115837 124.63902 
L 234.53905 110.097198 
L 239.962262 113.732654 
L 245.385475 124.63902 
L 250.808687 113.732654 
L 256.2319 128.274476 
L 261.655112 113.732654 
L 267.078325 124.63902 
L 272.501537 110.097198 
L 277.92475 106.461743 
L 283.347963 121.003565 
L 288.771175 106.461743 
L 294.194388 131.546385 
L 299.6176 113.732654 
L 305.040813 113.732654 
L 310.464025 128.274476 
L 315.887238 106.461743 
L 321.31045 106.461743 
L 326.733663 110.097198 
L 332.156875 124.63902 
L 337.580088 106.461743 
L 343.0033 110.097198 
L 348.426513 106.461743 
L 353.849725 102.826287 
L 359.272938 106.461743 
L 364.69615 106.461743 
L 370.119363 110.097198 
L 375.542576 106.461743 
L 380.965788 106.461743 
L 386.389001 131.909931 
L 391.812213 110.097198 
L 397.235426 110.097198 
L 402.658638 131.909931 
L 408.081851 110.097198 
L 413.505063 110.097198 
L 418.928276 106.461743 
L 424.351488 128.274476 
L 429.774701 106.461743 
L 435.197913 111.55138 
L 440.621126 112.278472 
L 446.044338 110.097198 
L 451.467551 110.097198 
L 456.890764 113.732654 
L 462.313976 110.097198 
L 467.737189 117.368109 
L 473.160401 145.361116 
L 478.583614 408.204545 
" clip-path="url(#p1ecca19a08)" style="fill: none; stroke: #1f77b4; stroke-opacity: 0.9; stroke-width: 1.6; stroke-linecap: square"/>
   </g>
   <g id="line2d_30">
    <path d="M 77.265886 404.56909 
L 82.689099 84.64901 
L 88.112311 84.64901 
L 93.535524 81.013555 
L 98.958736 84.64901 
L 104.381949 84.64901 
L 109.805162 81.013555 
L 115.228374 84.64901 
L 120.651587 81.013555 
L 126.074799 84.64901 
L 131.498012 84.64901 
L 136.921224 81.013555 
L 142.344437 84.64901 
L 147.767649 84.64901 
L 153.190862 84.64901 
L 158.614074 81.013555 
L 164.037287 84.64901 
L 169.460499 84.64901 
L 174.883712 81.013555 
L 180.306924 84.64901 
L 185.730137 84.64901 
L 191.15335 84.64901 
L 196.576562 84.64901 
L 201.999775 84.64901 
L 207.422987 84.64901 
L 212.8462 81.013555 
L 218.269412 84.64901 
L 223.692625 81.3771 
L 229.115837 84.285465 
L 234.53905 84.64901 
L 239.962262 84.64901 
L 245.385475 81.013555 
L 250.808687 84.64901 
L 256.2319 84.64901 
L 261.655112 81.013555 
L 267.078325 84.64901 
L 272.501537 84.64901 
L 277.92475 81.013555 
L 283.347963 84.64901 
L 288.771175 84.64901 
L 294.194388 84.64901 
L 299.6176 81.013555 
L 305.040813 84.64901 
L 310.464025 84.64901 
L 315.887238 84.64901 
L 321.31045 84.64901 
L 326.733663 81.013555 
L 332.156875 81.013555 
L 337.580088 84.64901 
L 343.0033 84.64901 
L 348.426513 84.64901 
L 353.849725 84.64901 
L 359.272938 81.013555 
L 364.69615 84.64901 
L 370.119363 84.64901 
L 375.542576 81.013555 
L 380.965788 84.64901 
L 386.389001 81.013555 
L 391.812213 84.64901 
L 397.235426 81.013555 
L 402.658638 88.284466 
L 408.081851 408.204545 
L 413.505063 408.204545 
L 418.928276 408.204545 
L 424.351488 408.204545 
L 429.774701 408.204545 
L 435.197913 408.204545 
L 440.621126 408.204545 
L 446.044338 408.204545 
L 451.467551 408.204545 
L 456.890764 408.204545 
L 462.313976 408.204545 
L 467.737189 408.204545 
L 473.160401 408.204545 
L 478.583614 408.204545 
" clip-path="url(#p1ecca19a08)" style="fill: none; stroke: #ff7f0e; stroke-opacity: 0.9; stroke-width: 1.6; stroke-linecap: square"/>
   </g>
   <g id="line2d_31">
    <path d="M 77.265886 48.294456 
L 82.689099 44.659 
L 88.112311 44.659 
L 93.535524 44.659 
L 98.958736 44.659 
L 104.381949 44.659 
L 109.805162 44.659 
L 115.228374 44.659 
L 120.651587 44.659 
L 126.074799 44.659 
L 131.498012 44.659 
L 136.921224 44.659 
L 142.344437 44.659 
L 147.767649 44.659 
L 153.190862 44.659 
L 158.614074 44.659 
L 164.037287 44.659 
L 169.460499 45.022546 
L 174.883712 44.295455 
L 180.306924 44.659 
L 185.730137 44.659 
L 191.15335 44.659 
L 196.576562 44.659 
L 201.999775 44.659 
L 207.422987 44.659 
L 212.8462 44.659 
L 218.269412 44.659 
L 223.692625 44.659 
L 229.115837 44.659 
L 234.53905 44.659 
L 239.962262 44.659 
L 245.385475 44.659 
L 250.808687 44.659 
L 256.2319 44.659 
L 261.655112 44.659 
L 267.078325 44.659 
L 272.501537 44.659 
L 277.92475 44.659 
L 283.347963 44.659 
L 288.771175 44.659 
L 294.194388 44.659 
L 299.6176 44.659 
L 305.040813 44.659 
L 310.464025 44.659 
L 315.887238 44.659 
L 321.31045 44.659 
L 326.733663 44.659 
L 332.156875 44.659 
L 337.580088 44.659 
L 343.0033 44.659 
L 348.426513 44.659 
L 353.849725 44.659 
L 359.272938 44.659 
L 364.69615 44.659 
L 370.119363 44.659 
L 375.542576 44.659 
L 380.965788 44.659 
L 386.389001 44.659 
L 391.812213 44.659 
L 397.235426 44.659 
L 402.658638 404.56909 
L 408.081851 408.204545 
L 413.505063 408.204545 
L 418.928276 408.204545 
L 424.351488 408.204545 
L 429.774701 408.204545 
L 435.197913 408.204545 
L 440.621126 408.204545 
L 446.044338 408.204545 
L 451.467551 408.204545 
L 456.890764 408.204545 
L 462.313976 408.204545 
L 467.737189 408.204545 
L 473.160401 408.204545 
L 478.583614 408.204545 
" clip-path="url(#p1ecca19a08)" style="fill: none; stroke: #2ca02c; stroke-opacity: 0.9; stroke-width: 1.6; stroke-linecap: square"/>
   </g>
   <g id="line2d_32">
    <path d="M 77.265886 342.402802 
L 82.689099 44.659 
L 88.112311 44.659 
L 93.535524 44.659 
L 98.958736 44.659 
L 104.381949 44.659 
L 109.805162 44.659 
L 115.228374 44.659 
L 120.651587 44.659 
L 126.074799 44.659 
L 131.498012 44.659 
L 136.921224 44.659 
L 142.344437 44.659 
L 147.767649 44.659 
L 153.190862 44.659 
L 158.614074 44.659 
L 164.037287 44.659 
L 169.460499 44.659 
L 174.883712 44.659 
L 180.306924 44.659 
L 185.730137 44.659 
L 191.15335 44.659 
L 196.576562 44.659 
L 201.999775 44.659 
L 207.422987 44.659 
L 212.8462 44.659 
L 218.269412 44.659 
L 223.692625 44.659 
L 229.115837 44.659 
L 234.53905 44.659 
L 239.962262 44.659 
L 245.385475 44.659 
L 250.808687 44.659 
L 256.2319 44.659 
L 261.655112 44.659 
L 267.078325 44.659 
L 272.501537 44.659 
L 277.92475 44.659 
L 283.347963 44.659 
L 288.771175 44.659 
L 294.194388 44.659 
L 299.6176 44.659 
L 305.040813 44.659 
L 310.464025 44.659 
L 315.887238 44.659 
L 321.31045 44.659 
L 326.733663 44.659 
L 332.156875 44.659 
L 337.580088 44.659 
L 343.0033 44.659 
L 348.426513 44.659 
L 353.849725 44.659 
L 359.272938 44.659 
L 364.69615 44.659 
L 370.119363 44.659 
L 375.542576 44.659 
L 380.965788 44.659 
L 386.389001 44.659 
L 391.812213 44.659 
L 397.235426 44.659 
L 402.658638 110.097198 
L 408.081851 408.204545 
L 413.505063 408.204545 
L 418.928276 408.204545 
L 424.351488 408.204545 
L 429.774701 408.204545 
L 435.197913 408.204545 
L 440.621126 408.204545 
L 446.044338 408.204545 
L 451.467551 408.204545 
L 456.890764 408.204545 
L 462.313976 408.204545 
L 467.737189 408.204545 
L 473.160401 408.204545 
L 478.583614 408.204545 
" clip-path="url(#p1ecca19a08)" style="fill: none; stroke: #d62728; stroke-opacity: 0.9; stroke-width: 1.6; stroke-linecap: square"/>
   </g>
   <g id="patch_3">
    <path d="M 57.2 426.4 
L 57.2 26.1 
" style="fill: none; stroke: #000000; stroke-width: 0.8; stroke-linejoin: miter; stroke-linecap: square"/>
   </g>
   <g id="patch_4">
    <path d="M 498.6495 426.4 
L 498.6495 26.1 
" style="fill: none; stroke: #000000; stroke-width: 0.8; stroke-linejoin: miter; stroke-linecap: square"/>
   </g>
   <g id="patch_5">
    <path d="M 57.2 426.4 
L 498.6495 426.4 
" style="fill: none; stroke: #000000; stroke-width: 0.8; stroke-linejoin: miter; stroke-linecap: square"/>
   </g>
   <g id="patch_6">
    <path d="M 57.2 26.1 
L 498.6495 26.1 
" style="fill: none; stroke: #000000; stroke-width: 0.8; stroke-linejoin: miter; stroke-linecap: square"/>
   </g>
   <g id="text_17">
    <!-- Healthy server (control) — completed RPS vs. time (1 s bins) -->
    <g transform="translate(95.53225 20.1) scale(0.12 -0.12)">
     <defs>
      <path id="DejaVuSans-48" d="M 628 4666 
L 1259 4666 
L 1259 2753 
L 3553 2753 
L 3553 4666 
L 4184 4666 
L 4184 0 
L 3553 0 
L 3553 2222 
L 1259 2222 
L 1259 0 
L 628 0 
L 628 4666 
z
" transform="scale(0.015625)"/>
      <path id="DejaVuSans-68" d="M 3513 2113 
L 3513 0 
L 2938 0 
L 2938 2094 
Q 2938 2591 2744 2837 
Q 2550 3084 2163 3084 
Q 1697 3084 1428 2787 
Q 1159 2491 1159 1978 
L 1159 0 
L 581 0 
L 581 4863 
L 1159 4863 
L 1159 2956 
Q 1366 3272 1645 3428 
Q 1925 3584 2291 3584 
Q 2894 3584 3203 3211 
Q 3513 2838 3513 2113 
z
" transform="scale(0.015625)"/>
      <path id="DejaVuSans-79" d="M 2059 -325 
Q 1816 -950 1584 -1140 
Q 1353 -1331 966 -1331 
L 506 -1331 
L 506 -850 
L 844 -850 
Q 1081 -850 1212 -737 
Q 1344 -625 1503 -206 
L 1606 56 
L 191 3500 
L 800 3500 
L 1894 763 
L 2988 3500 
L 3597 3500 
L 2059 -325 
z
" transform="scale(0.015625)"/>
      <path id="DejaVuSans-76" d="M 191 3500 
L 800 3500 
L 1894 563 
L 2988 3500 
L 3597 3500 
L 2284 0 
L 1503 0 
L 191 3500 
z
" transform="scale(0.015625)"/>
      <path id="DejaVuSans-2014" d="M 313 1978 
L 6088 1978 
L 6088 1528 
L 313 1528 
L 313 1978 
z
" transform="scale(0.015625)"/>
      <path id="DejaVuSans-52" d="M 2841 2188 
Q 3044 2119 3236 1894 
Q 3428 1669 3622 1275 
L 4263 0 
L 3584 0 
L 2988 1197 
Q 2756 1666 2539 1819 
Q 2322 1972 1947 1972 
L 1259 1972 
L 1259 0 
L 628 0 
L 628 4666 
L 2053 4666 
Q 2853 4666 3247 4331 
Q 3641 3997 3641 3322 
Q 3641 2881 3436 2590 
Q 3231 2300 2841 2188 
z
M 1259 4147 
L 1259 2491 
L 2053 2491 
Q 2509 2491 2742 2702 
Q 2975 2913 2975 3322 
Q 2975 3731 2742 3939 
Q 2509 4147 2053 4147 
L 1259 4147 
z
" transform="scale(0.015625)"/>
      <path id="DejaVuSans-50" d="M 1259 4147 
L 1259 2394 
L 2053 2394 
Q 2494 2394 2734 2622 
Q 2975 2850 2975 3272 
Q 2975 3691 2734 3919 
Q 2494 4147 2053 4147 
L 1259 4147 
z
M 628 4666 
L 2053 4666 
Q 2838 4666 3239 4311 
Q 3641 3956 3641 3272 
Q 3641 2581 3239 2228 
Q 2838 1875 2053 1875 
L 1259 1875 
L 1259 0 
L 628 0 
L 628 4666 
z
" transform="scale(0.015625)"/>
      <path id="DejaVuSans-53" d="M 3425 4513 
L 3425 3897 
Q 3066 4069 2747 4153 
Q 2428 4238 2131 4238 
Q 1616 4238 1336 4038 
Q 1056 3838 1056 3469 
Q 1056 3159 1242 3001 
Q 1428 2844 1947 2747 
L 2328 2669 
Q 3034 2534 3370 2195 
Q 3706 1856 3706 1288 
Q 3706 609 3251 259 
Q 2797 -91 1919 -91 
Q 1588 -91 1214 -16 
Q 841 59 441 206 
L 441 856 
Q 825 641 1194 531 
Q 1563 422 1919 422 
Q 2459 422 2753 634 
Q 3047 847 3047 1241 
Q 3047 1584 2836 1778 
Q 2625 1972 2144 2069 
L 1759 2144 
Q 1053 2284 737 2584 
Q 422 2884 422 3419 
Q 422 4038 858 4394 
Q 1294 4750 2059 4750 
Q 2388 4750 2728 4690 
Q 3069 4631 3425 4513 
z
" transform="scale(0.015625)"/>
      <path id="DejaVuSans-2e" d="M 684 794 
L 1344 794 
L 1344 0 
L 684 0 
L 684 794 
z
" transform="scale(0.015625)"/>
     </defs>
     <use xlink:href="#DejaVuSans-48"/>
     <use xlink:href="#DejaVuSans-65" transform="translate(75.195312 0)"/>
     <use xlink:href="#DejaVuSans-61" transform="translate(136.71875 0)"/>
     <use xlink:href="#DejaVuSans-6c" transform="translate(197.998047 0)"/>
     <use xlink:href="#DejaVuSans-74" transform="translate(225.78125 0)"/>
     <use xlink:href="#DejaVuSans-68" transform="translate(264.990234 0)"/>
     <use xlink:href="#DejaVuSans-79" transform="translate(328.369141 0)"/>
     <use xlink:href="#DejaVuSans-20" transform="translate(387.548828 0)"/>
     <use xlink:href="#DejaVuSans-73" transform="translate(419.335938 0)"/>
     <use xlink:href="#DejaVuSans-65" transform="translate(471.435547 0)"/>
     <use xlink:href="#DejaVuSans-72" transform="translate(532.958984 0)"/>
     <use xlink:href="#DejaVuSans-76" transform="translate(574.072266 0)"/>
     <use xlink:href="#DejaVuSans-65" transform="translate(633.251953 0)"/>
     <use xlink:href="#DejaVuSans-72" transform="translate(694.775391 0)"/>
     <use xlink:href="#DejaVuSans-20" transform="translate(735.888672 0)"/>
     <use xlink:href="#DejaVuSans-28" transform="translate(767.675781 0)"/>
     <use xlink:href="#DejaVuSans-63" transform="translate(806.689453 0)"/>
     <use xlink:href="#DejaVuSans-6f" transform="translate(861.669922 0)"/>
     <use xlink:href="#DejaVuSans-6e" transform="translate(922.851562 0)"/>
     <use xlink:href="#DejaVuSans-74" transform="translate(986.230469 0)"/>
     <use xlink:href="#DejaVuSans-72" transform="translate(1025.439453 0)"/>
     <use xlink:href="#DejaVuSans-6f" transform="translate(1064.302734 0)"/>
     <use xlink:href="#DejaVuSans-6c" transform="translate(1125.484375 0)"/>
     <use xlink:href="#DejaVuSans-29" transform="translate(1153.267578 0)"/>
     <use xlink:href="#DejaVuSans-20" transform="translate(1192.28125 0)"/>
     <use xlink:href="#DejaVuSans-2014" transform="translate(1224.068359 0)"/>
     <use xlink:href="#DejaVuSans-20" transform="translate(1324.068359 0)"/>
     <use xlink:href="#DejaVuSans-63" transform="translate(1355.855469 0)"/>
     <use xlink:href="#DejaVuSans-6f" transform="translate(1410.835938 0)"/>
     <use xlink:href="#DejaVuSans-6d" transform="translate(1472.017578 0)"/>
     <use xlink:href="#DejaVuSans-70" transform="translate(1569.429688 0)"/>
     <use xlink:href="#DejaVuSans-6c" transform="translate(1632.90625 0)"/>
     <use xlink:href="#DejaVuSans-65" transform="translate(1660.689453 0)"/>
     <use xlink:href="#DejaVuSans-74" transform="translate(1722.212891 0)"/>
     <use xlink:href="#DejaVuSans-65" transform="translate(1761.421875 0)"/>
     <use xlink:href="#DejaVuSans-64" transform="translate(1822.945312 0)"/>
     <use xlink:href="#DejaVuSans-20" transform="translate(1886.421875 0)"/>
     <use xlink:href="#DejaVuSans-52" transform="translate(1918.208984 0)"/>
     <use xlink:href="#DejaVuSans-50" transform="translate(1987.691406 0)"/>
     <use xlink:href="#DejaVuSans-53" transform="translate(2047.994141 0)"/>
     <use xlink:href="#DejaVuSans-20" transform="translate(2111.470703 0)"/>
     <use xlink:href="#DejaVuSans-76" transform="translate(2143.257812 0)"/>
     <use xlink:href="#DejaVuSans-73" transform="translate(2202.4375 0)"/>
     <use xlink:href="#DejaVuSans-2e" transform="translate(2254.537109 0)"/>
     <use xlink:href="#DejaVuSans-20" transform="translate(2286.324219 0)"/>
     <use xlink:href="#DejaVuSans-74" transform="translate(2318.111328 0)"/>
     <use xlink:href="#DejaVuSans-69" transform="translate(2357.320312 0)"/>
     <use xlink:href="#DejaVuSans-6d" transform="translate(2385.103516 0)"/>
     <use xlink:href="#DejaVuSans-65" transform="translate(2482.515625 0)"/>
     <use xlink:href="#DejaVuSans-20" transform="translate(2544.039062 0)"/>
     <use xlink:href="#DejaVuSans-28" transform="translate(2575.826172 0)"/>
     <use xlink:href="#DejaVuSans-31" transform="translate(2614.839844 0)"/>
     <use xlink:href="#DejaVuSans-20" transform="translate(2678.462891 0)"/>
     <use xlink:href="#DejaVuSans-73" transform="translate(2710.25 0)"/>
     <use xlink:href="#DejaVuSans-20" transform="translate(2762.349609 0)"/>
     <use xlink:href="#DejaVuSans-62" transform="translate(2794.136719 0)"/>
     <use xlink:href="#DejaVuSans-69" transform="translate(2857.613281 0)"/>
     <use xlink:href="#DejaVuSans-6e" transform="translate(2885.396484 0)"/>
     <use xlink:href="#DejaVuSans-73" transform="translate(2948.775391 0)"/>
     <use xlink:href="#DejaVuSans-29" transform="translate(3000.875 0)"/>
    </g>
   </g>
   <g id="legend_1">
    <g id="patch_7">
     <path d="M 509.14449 77.506513 
L 684.565179 77.506513 
Q 686.231179 77.506513 686.231179 75.840513 
L 686.231179 27.766 
Q 686.231179 26.1 684.565179 26.1 
L 509.14449 26.1 
Q 507.47849 26.1 507.47849 27.766 
L 507.47849 75.840513 
Q 507.47849 77.506513 509.14449 77.506513 
z
" style="fill: #ffffff; opacity: 0.9; stroke: #cccccc; stroke-linejoin: miter"/>
    </g>
    <g id="line2d_33">
     <path d="M 510.81049 32.845998 
L 519.14049 32.845998 
L 527.47049 32.845998 
" style="fill: none; stroke: #1f77b4; stroke-opacity: 0.9; stroke-width: 1.6; stroke-linecap: square"/>
    </g>
    <g id="text_18">
     <!-- ab (closed loop) -->
     <g transform="translate(534.13449 35.761498) scale(0.0833 -0.0833)">
      <use xlink:href="#DejaVuSans-61"/>
      <use xlink:href="#DejaVuSans-62" transform="translate(61.279297 0)"/>
      <use xlink:href="#DejaVuSans-20" transform="translate(124.755859 0)"/>
      <use xlink:href="#DejaVuSans-28" transform="translate(156.542969 0)"/>
      <use xlink:href="#DejaVuSans-63" transform="translate(195.556641 0)"/>
      <use xlink:href="#DejaVuSans-6c" transform="translate(250.537109 0)"/>
      <use xlink:href="#DejaVuSans-6f" transform="translate(278.320312 0)"/>
      <use xlink:href="#DejaVuSans-73" transform="translate(339.501953 0)"/>
      <use xlink:href="#DejaVuSans-65" transform="translate(391.601562 0)"/>
      <use xlink:href="#DejaVuSans-64" transform="translate(453.125 0)"/>
      <use xlink:href="#DejaVuSans-20" transform="translate(516.601562 0)"/>
      <use xlink:href="#DejaVuSans-6c" transform="translate(548.388672 0)"/>
      <use xlink:href="#DejaVuSans-6f" transform="translate(576.171875 0)"/>
      <use xlink:href="#DejaVuSans-6f" transform="translate(637.353516 0)"/>
      <use xlink:href="#DejaVuSans-70" transform="translate(698.535156 0)"/>
      <use xlink:href="#DejaVuSans-29" transform="translate(762.011719 0)"/>
     </g>
    </g>
    <g id="line2d_34">
     <path d="M 510.81049 45.072877 
L 519.14049 45.072877 
L 527.47049 45.072877 
" style="fill: none; stroke: #ff7f0e; stroke-opacity: 0.9; stroke-width: 1.6; stroke-linecap: square"/>
    </g>
    <g id="text_19">
     <!-- k6 constant-vus (closed loop) -->
     <g transform="translate(534.13449 47.988377) scale(0.0833 -0.0833)">
      <defs>
       <path id="DejaVuSans-6b" d="M 581 4863 
L 1159 4863 
L 1159 1991 
L 2875 3500 
L 3609 3500 
L 1753 1863 
L 3688 0 
L 2938 0 
L 1159 1709 
L 1159 0 
L 581 0 
L 581 4863 
z
" transform="scale(0.015625)"/>
       <path id="DejaVuSans-2d" d="M 313 2009 
L 1997 2009 
L 1997 1497 
L 313 1497 
L 313 2009 
z
" transform="scale(0.015625)"/>
      </defs>
      <use xlink:href="#DejaVuSans-6b"/>
      <use xlink:href="#DejaVuSans-36" transform="translate(57.910156 0)"/>
      <use xlink:href="#DejaVuSans-20" transform="translate(121.533203 0)"/>
      <use xlink:href="#DejaVuSans-63" transform="translate(153.320312 0)"/>
      <use xlink:href="#DejaVuSans-6f" transform="translate(208.300781 0)"/>
      <use xlink:href="#DejaVuSans-6e" transform="translate(269.482422 0)"/>
      <use xlink:href="#DejaVuSans-73" transform="translate(332.861328 0)"/>
      <use xlink:href="#DejaVuSans-74" transform="translate(384.960938 0)"/>
      <use xlink:href="#DejaVuSans-61" transform="translate(424.169922 0)"/>
      <use xlink:href="#DejaVuSans-6e" transform="translate(485.449219 0)"/>
      <use xlink:href="#DejaVuSans-74" transform="translate(548.828125 0)"/>
      <use xlink:href="#DejaVuSans-2d" transform="translate(588.037109 0)"/>
      <use xlink:href="#DejaVuSans-76" transform="translate(621.496094 0)"/>
      <use xlink:href="#DejaVuSans-75" transform="translate(680.675781 0)"/>
      <use xlink:href="#DejaVuSans-73" transform="translate(744.054688 0)"/>
      <use xlink:href="#DejaVuSans-20" transform="translate(796.154297 0)"/>
      <use xlink:href="#DejaVuSans-28" transform="translate(827.941406 0)"/>
      <use xlink:href="#DejaVuSans-63" transform="translate(866.955078 0)"/>
      <use xlink:href="#DejaVuSans-6c" transform="translate(921.935547 0)"/>
      <use xlink:href="#DejaVuSans-6f" transform="translate(949.71875 0)"/>
      <use xlink:href="#DejaVuSans-73" transform="translate(1010.900391 0)"/>
      <use xlink:href="#DejaVuSans-65" transform="translate(1063 0)"/>
      <use xlink:href="#DejaVuSans-64" transform="translate(1124.523438 0)"/>
      <use xlink:href="#DejaVuSans-20" transform="translate(1188 0)"/>
      <use xlink:href="#DejaVuSans-6c" transform="translate(1219.787109 0)"/>
      <use xlink:href="#DejaVuSans-6f" transform="translate(1247.570312 0)"/>
      <use xlink:href="#DejaVuSans-6f" transform="translate(1308.751953 0)"/>
      <use xlink:href="#DejaVuSans-70" transform="translate(1369.933594 0)"/>
      <use xlink:href="#DejaVuSans-29" transform="translate(1433.410156 0)"/>
     </g>
    </g>
    <g id="line2d_35">
     <path d="M 510.81049 57.299755 
L 519.14049 57.299755 
L 527.47049 57.299755 
" style="fill: none; stroke: #2ca02c; stroke-opacity: 0.9; stroke-width: 1.6; stroke-linecap: square"/>
    </g>
    <g id="text_20">
     <!-- Vegeta (open loop) -->
     <g transform="translate(534.13449 60.215255) scale(0.0833 -0.0833)">
      <defs>
       <path id="DejaVuSans-56" d="M 1831 0 
L 50 4666 
L 709 4666 
L 2188 738 
L 3669 4666 
L 4325 4666 
L 2547 0 
L 1831 0 
z
" transform="scale(0.015625)"/>
       <path id="DejaVuSans-67" d="M 2906 1791 
Q 2906 2416 2648 2759 
Q 2391 3103 1925 3103 
Q 1463 3103 1205 2759 
Q 947 2416 947 1791 
Q 947 1169 1205 825 
Q 1463 481 1925 481 
Q 2391 481 2648 825 
Q 2906 1169 2906 1791 
z
M 3481 434 
Q 3481 -459 3084 -895 
Q 2688 -1331 1869 -1331 
Q 1566 -1331 1297 -1286 
Q 1028 -1241 775 -1147 
L 775 -588 
Q 1028 -725 1275 -790 
Q 1522 -856 1778 -856 
Q 2344 -856 2625 -561 
Q 2906 -266 2906 331 
L 2906 616 
Q 2728 306 2450 153 
Q 2172 0 1784 0 
Q 1141 0 747 490 
Q 353 981 353 1791 
Q 353 2603 747 3093 
Q 1141 3584 1784 3584 
Q 2172 3584 2450 3431 
Q 2728 3278 2906 2969 
L 2906 3500 
L 3481 3500 
L 3481 434 
z
" transform="scale(0.015625)"/>
      </defs>
      <use xlink:href="#DejaVuSans-56"/>
      <use xlink:href="#DejaVuSans-65" transform="translate(60.658203 0)"/>
      <use xlink:href="#DejaVuSans-67" transform="translate(122.181641 0)"/>
      <use xlink:href="#DejaVuSans-65" transform="translate(185.658203 0)"/>
      <use xlink:href="#DejaVuSans-74" transform="translate(247.181641 0)"/>
      <use xlink:href="#DejaVuSans-61" transform="translate(286.390625 0)"/>
      <use xlink:href="#DejaVuSans-20" transform="translate(347.669922 0)"/>
      <use xlink:href="#DejaVuSans-28" transform="translate(379.457031 0)"/>
      <use xlink:href="#DejaVuSans-6f" transform="translate(418.470703 0)"/>
      <use xlink:href="#DejaVuSans-70" transform="translate(479.652344 0)"/>
      <use xlink:href="#DejaVuSans-65" transform="translate(543.128906 0)"/>
      <use xlink:href="#DejaVuSans-6e" transform="translate(604.652344 0)"/>
      <use xlink:href="#DejaVuSans-20" transform="translate(668.03125 0)"/>
      <use xlink:href="#DejaVuSans-6c" transform="translate(699.818359 0)"/>
      <use xlink:href="#DejaVuSans-6f" transform="translate(727.601562 0)"/>
      <use xlink:href="#DejaVuSans-6f" transform="translate(788.783203 0)"/>
      <use xlink:href="#DejaVuSans-70" transform="translate(849.964844 0)"/>
      <use xlink:href="#DejaVuSans-29" transform="translate(913.441406 0)"/>
     </g>
    </g>
    <g id="line2d_36">
     <path d="M 510.81049 69.526633 
L 519.14049 69.526633 
L 527.47049 69.526633 
" style="fill: none; stroke: #d62728; stroke-opacity: 0.9; stroke-width: 1.6; stroke-linecap: square"/>
    </g>
    <g id="text_21">
     <!-- k6 constant-arrival-rate (open loop) -->
     <g transform="translate(534.13449 72.442133) scale(0.0833 -0.0833)">
      <use xlink:href="#DejaVuSans-6b"/>
      <use xlink:href="#DejaVuSans-36" transform="translate(57.910156 0)"/>
      <use xlink:href="#DejaVuSans-20" transform="translate(121.533203 0)"/>
      <use xlink:href="#DejaVuSans-63" transform="translate(153.320312 0)"/>
      <use xlink:href="#DejaVuSans-6f" transform="translate(208.300781 0)"/>
      <use xlink:href="#DejaVuSans-6e" transform="translate(269.482422 0)"/>
      <use xlink:href="#DejaVuSans-73" transform="translate(332.861328 0)"/>
      <use xlink:href="#DejaVuSans-74" transform="translate(384.960938 0)"/>
      <use xlink:href="#DejaVuSans-61" transform="translate(424.169922 0)"/>
      <use xlink:href="#DejaVuSans-6e" transform="translate(485.449219 0)"/>
      <use xlink:href="#DejaVuSans-74" transform="translate(548.828125 0)"/>
      <use xlink:href="#DejaVuSans-2d" transform="translate(588.037109 0)"/>
      <use xlink:href="#DejaVuSans-61" transform="translate(624.121094 0)"/>
      <use xlink:href="#DejaVuSans-72" transform="translate(685.400391 0)"/>
      <use xlink:href="#DejaVuSans-72" transform="translate(724.763672 0)"/>
      <use xlink:href="#DejaVuSans-69" transform="translate(765.876953 0)"/>
      <use xlink:href="#DejaVuSans-76" transform="translate(793.660156 0)"/>
      <use xlink:href="#DejaVuSans-61" transform="translate(852.839844 0)"/>
      <use xlink:href="#DejaVuSans-6c" transform="translate(914.119141 0)"/>
      <use xlink:href="#DejaVuSans-2d" transform="translate(941.902344 0)"/>
      <use xlink:href="#DejaVuSans-72" transform="translate(977.986328 0)"/>
      <use xlink:href="#DejaVuSans-61" transform="translate(1019.099609 0)"/>
      <use xlink:href="#DejaVuSans-74" transform="translate(1080.378906 0)"/>
      <use xlink:href="#DejaVuSans-65" transform="translate(1119.587891 0)"/>
      <use xlink:href="#DejaVuSans-20" transform="translate(1181.111328 0)"/>
      <use xlink:href="#DejaVuSans-28" transform="translate(1212.898438 0)"/>
      <use xlink:href="#DejaVuSans-6f" transform="translate(1251.912109 0)"/>
      <use xlink:href="#DejaVuSans-70" transform="translate(1313.09375 0)"/>
      <use xlink:href="#DejaVuSans-65" transform="translate(1376.570312 0)"/>
      <use xlink:href="#DejaVuSans-6e" transform="translate(1438.09375 0)"/>
      <use xlink:href="#DejaVuSans-20" transform="translate(1501.472656 0)"/>
      <use xlink:href="#DejaVuSans-6c" transform="translate(1533.259766 0)"/>
      <use xlink:href="#DejaVuSans-6f" transform="translate(1561.042969 0)"/>
      <use xlink:href="#DejaVuSans-6f" transform="translate(1622.224609 0)"/>
      <use xlink:href="#DejaVuSans-70" transform="translate(1683.40625 0)"/>
      <use xlink:href="#DejaVuSans-29" transform="translate(1746.882812 0)"/>
     </g>
    </g>
   </g>
  </g>
 </g>
 <defs>
  <clipPath id="p1ecca19a08">
   <rect x="57.2" y="26.1" width="441.4495" height="400.3"/>
  </clipPath>
 </defs>
</svg>
