<?xml version="1.0" encoding="utf-8" standalone="no"?>
<!DOCTYPE svg PUBLIC "-//W3C//DTD SVG 1.1//EN"
  "http://www.w3.org/Graphics/SVG/1.1/DTD/svg11.dtd">
<svg xmlns:xlink="http://www.w3.org/1999/xlink" width="900pt" height="468pt" viewBox="0 0 900 468" xmlns="http://www.w3.org/2000/svg" version="1.1">
 <metadata>
  <rdf:RDF xmlns:dc="http://purl.org/dc/elements/1.1/" xmlns:cc="http://creativecommons.org/ns#" xmlns:rdf="http://www.w3.org/1999/02/22-rdf-syntax-ns#">
   <cc:Work>
    <dc:type rdf:resource="http://purl.org/dc/dcmitype/StillImage"/>
    <dc:date>2026-05-04T17:00:29.099785</dc:date>
    <dc:format>image/svg+xml</dc:format>
    <dc:creator>
     <cc:Agent>
      <dc:title>Matplotlib v3.10.9, https://matplotlib.org/</dc:title>
     </cc:Agent>
    </dc:creator>
   </cc:Work>
  </rdf:RDF>
 </metadata>
 <defs>
  <style type="text/css">*{stroke-linejoin: round; stroke-linecap: butt}</style>
 </defs>
 <g id="figure_1">
  <g id="patch_1">
   <path d="M 0 468 
L 900 468 
L 900 0 
L 0 0 
z
" style="fill: #ffffff"/>
  </g>
  <g id="axes_1">
   <g id="patch_2">
    <path d="M 57.2 426.4 
L 498.6495 426.4 
L 498.6495 26.1 
L 57.2 26.1 
z
" style="fill: #ffffff"/>
   </g>
   <g id="patch_3">
    <path d="M 95.722716 426.4 
L 124.117838 426.4 
L 124.117838 26.1 
L 95.722716 26.1 
z
" clip-path="url(#p162ee75a05)" style="fill: #ff7f0e; opacity: 0.1"/>
   </g>
   <g id="matplotlib.axis_1">
    <g id="xtick_1">
     <g id="line2d_1">
      <path d="M 76.792634 426.4 
L 76.792634 26.1 
" clip-path="url(#p162ee75a05)" style="fill: none; stroke: #b0b0b0; stroke-opacity: 0.3; stroke-width: 0.8; stroke-linecap: square"/>
     </g>
     <g id="line2d_2">
      <defs>
       <path id="m6aa7b21b49" d="M 0 0 
L 0 3.5 
" style="stroke: #000000; stroke-width: 0.8"/>
      </defs>
      <g>
       <use xlink:href="#m6aa7b21b49" x="76.792634" y="426.4" style="stroke: #000000; stroke-width: 0.8"/>
      </g>
     </g>
     <g id="text_1">
      <!-- 0 -->
      <g transform="translate(73.611384 440.998438) scale(0.1 -0.1)">
       <defs>
        <path id="DejaVuSans-30" d="M 2034 4250 
Q 1547 4250 1301 3770 
Q 1056 3291 1056 2328 
Q 1056 1369 1301 889 
Q 1547 409 2034 409 
Q 2525 409 2770 889 
Q 3016 1369 3016 2328 
Q 3016 3291 2770 3770 
Q 2525 4250 2034 4250 
z
M 2034 4750 
Q 2819 4750 3233 4129 
Q 3647 3509 3647 2328 
Q 3647 1150 3233 529 
Q 2819 -91 2034 -91 
Q 1250 -91 836 529 
Q 422 1150 422 2328 
Q 422 3509 836 4129 
Q 1250 4750 2034 4750 
z
" transform="scale(0.015625)"/>
       </defs>
       <use xlink:href="#DejaVuSans-30"/>
      </g>
     </g>
    </g>
    <g id="xtick_2">
     <g id="line2d_3">
      <path d="M 171.443042 426.4 
L 171.443042 26.1 
" clip-path="url(#p162ee75a05)" style="fill: none; stroke: #b0b0b0; stroke-opacity: 0.3; stroke-width: 0.8; stroke-linecap: square"/>
     </g>
     <g id="line2d_4">
      <g>
       <use xlink:href="#m6aa7b21b49" x="171.443042" y="426.4" style="stroke: #000000; stroke-width: 0.8"/>
      </g>
     </g>
     <g id="text_2">
      <!-- 100 -->
      <g transform="translate(161.899292 440.998438) scale(0.1 -0.1)">
       <defs>
        <path id="DejaVuSans-31" d="M 794 531 
L 1825 531 
L 1825 4091 
L 703 3866 
L 703 4441 
L 1819 4666 
L 2450 4666 
L 2450 531 
L 3481 531 
L 3481 0 
L 794 0 
L 794 531 
z
" transform="scale(0.015625)"/>
       </defs>
       <use xlink:href="#DejaVuSans-31"/>
       <use xlink:href="#DejaVuSans-30" transform="translate(63.623047 0)"/>
       <use xlink:href="#DejaVuSans-30" transform="translate(127.246094 0)"/>
      </g>
     </g>
    </g>
    <g id="xtick_3">
     <g id="line2d_5">
      <path d="M 266.093449 426.4 
L 266.093449 26.1 
" clip-path="url(#p162ee75a05)" style="fill: none; stroke: #b0b0b0; stroke-opacity: 0.3; stroke-width: 0.8; stroke-linecap: square"/>
     </g>
     <g id="line2d_6">
      <g>
       <use xlink:href="#m6aa7b21b49" x="266.093449" y="426.4" style="stroke: #000000; stroke-width: 0.8"/>
      </g>
     </g>
     <g id="text_3">
      <!-- 200 -->
      <g transform="translate(256.549699 440.998438) scale(0.1 -0.1)">
       <defs>
        <path id="DejaVuSans-32" d="M 1228 531 
L 3431 531 
L 3431 0 
L 469 0 
L 469 531 
Q 828 903 1448 1529 
Q 2069 2156 2228 2338 
Q 2531 2678 2651 2914 
Q 2772 3150 2772 3378 
Q 2772 3750 2511 3984 
Q 2250 4219 1831 4219 
Q 1534 4219 1204 4116 
Q 875 4013 500 3803 
L 500 4441 
Q 881 4594 1212 4672 
Q 1544 4750 1819 4750 
Q 2544 4750 2975 4387 
Q 3406 4025 3406 3419 
Q 3406 3131 3298 2873 
Q 3191 2616 2906 2266 
Q 2828 2175 2409 1742 
Q 1991 1309 1228 531 
z
" transform="scale(0.015625)"/>
       </defs>
       <use xlink:href="#DejaVuSans-32"/>
       <use xlink:href="#DejaVuSans-30" transform="translate(63.623047 0)"/>
       <use xlink:href="#DejaVuSans-30" transform="translate(127.246094 0)"/>
      </g>
     </g>
    </g>
    <g id="xtick_4">
     <g id="line2d_7">
      <path d="M 360.743856 426.4 
L 360.743856 26.1 
" clip-path="url(#p162ee75a05)" style="fill: none; stroke: #b0b0b0; stroke-opacity: 0.3; stroke-width: 0.8; stroke-linecap: square"/>
     </g>
     <g id="line2d_8">
      <g>
       <use xlink:href="#m6aa7b21b49" x="360.743856" y="426.4" style="stroke: #000000; stroke-width: 0.8"/>
      </g>
     </g>
     <g id="text_4">
      <!-- 300 -->
      <g transform="translate(351.200106 440.998438) scale(0.1 -0.1)">
       <defs>
        <path id="DejaVuSans-33" d="M 2597 2516 
Q 3050 2419 3304 2112 
Q 3559 1806 3559 1356 
Q 3559 666 3084 287 
Q 2609 -91 1734 -91 
Q 1441 -91 1130 -33 
Q 819 25 488 141 
L 488 750 
Q 750 597 1062 519 
Q 1375 441 1716 441 
Q 2309 441 2620 675 
Q 2931 909 2931 1356 
Q 2931 1769 2642 2001 
Q 2353 2234 1838 2234 
L 1294 2234 
L 1294 2753 
L 1863 2753 
Q 2328 2753 2575 2939 
Q 2822 3125 2822 3475 
Q 2822 3834 2567 4026 
Q 2313 4219 1838 4219 
Q 1578 4219 1281 4162 
Q 984 4106 628 3988 
L 628 4550 
Q 988 4650 1302 4700 
Q 1616 4750 1894 4750 
Q 2613 4750 3031 4423 
Q 3450 4097 3450 3541 
Q 3450 3153 3228 2886 
Q 3006 2619 2597 2516 
z
" transform="scale(0.015625)"/>
       </defs>
       <use xlink:href="#DejaVuSans-33"/>
       <use xlink:href="#DejaVuSans-30" transform="translate(63.623047 0)"/>
       <use xlink:href="#DejaVuSans-30" transform="translate(127.246094 0)"/>
      </g>
     </g>
    </g>
    <g id="xtick_5">
     <g id="line2d_9">
      <path d="M 455.394264 426.4 
L 455.394264 26.1 
" clip-path="url(#p162ee75a05)" style="fill: none; stroke: #b0b0b0; stroke-opacity: 0.3; stroke-width: 0.8; stroke-linecap: square"/>
     </g>
     <g id="line2d_10">
      <g>
       <use xlink:href="#m6aa7b21b49" x="455.394264" y="426.4" style="stroke: #000000; stroke-width: 0.8"/>
      </g>
     </g>
     <g id="text_5">
      <!-- 400 -->
      <g transform="translate(445.850514 440.998438) scale(0.1 -0.1)">
       <defs>
        <path id="DejaVuSans-34" d="M 2419 4116 
L 825 1625 
L 2419 1625 
L 2419 4116 
z
M 2253 4666 
L 3047 4666 
L 3047 1625 
L 3713 1625 
L 3713 1100 
L 3047 1100 
L 3047 0 
L 2419 0 
L 2419 1100 
L 313 1100 
L 313 1709 
L 2253 4666 
z
" transform="scale(0.015625)"/>
       </defs>
       <use xlink:href="#DejaVuSans-34"/>
       <use xlink:href="#DejaVuSans-30" transform="translate(63.623047 0)"/>
       <use xlink:href="#DejaVuSans-30" transform="translate(127.246094 0)"/>
      </g>
     </g>
    </g>
    <g id="text_6">
     <!-- time since test start (s) -->
     <g transform="translate(219.531781 454.676562) scale(0.1 -0.1)">
      <defs>
       <path id="DejaVuSans-74" d="M 1172 4494 
L 1172 3500 
L 2356 3500 
L 2356 3053 
L 1172 3053 
L 1172 1153 
Q 1172 725 1289 603 
Q 1406 481 1766 481 
L 2356 481 
L 2356 0 
L 1766 0 
Q 1100 0 847 248 
Q 594 497 594 1153 
L 594 3053 
L 172 3053 
L 172 3500 
L 594 3500 
L 594 4494 
L 1172 4494 
z
" transform="scale(0.015625)"/>
       <path id="DejaVuSans-69" d="M 603 3500 
L 1178 3500 
L 1178 0 
L 603 0 
L 603 3500 
z
M 603 4863 
L 1178 4863 
L 1178 4134 
L 603 4134 
L 603 4863 
z
" transform="scale(0.015625)"/>
       <path id="DejaVuSans-6d" d="M 3328 2828 
Q 3544 3216 3844 3400 
Q 4144 3584 4550 3584 
Q 5097 3584 5394 3201 
Q 5691 2819 5691 2113 
L 5691 0 
L 5113 0 
L 5113 2094 
Q 5113 2597 4934 2840 
Q 4756 3084 4391 3084 
Q 3944 3084 3684 2787 
Q 3425 2491 3425 1978 
L 3425 0 
L 2847 0 
L 2847 2094 
Q 2847 2600 2669 2842 
Q 2491 3084 2119 3084 
Q 1678 3084 1418 2786 
Q 1159 2488 1159 1978 
L 1159 0 
L 581 0 
L 581 3500 
L 1159 3500 
L 1159 2956 
Q 1356 3278 1631 3431 
Q 1906 3584 2284 3584 
Q 2666 3584 2933 3390 
Q 3200 3197 3328 2828 
z
" transform="scale(0.015625)"/>
       <path id="DejaVuSans-65" d="M 3597 1894 
L 3597 1613 
L 953 1613 
Q 991 1019 1311 708 
Q 1631 397 2203 397 
Q 2534 397 2845 478 
Q 3156 559 3463 722 
L 3463 178 
Q 3153 47 2828 -22 
Q 2503 -91 2169 -91 
Q 1331 -91 842 396 
Q 353 884 353 1716 
Q 353 2575 817 3079 
Q 1281 3584 2069 3584 
Q 2775 3584 3186 3129 
Q 3597 2675 3597 1894 
z
M 3022 2063 
Q 3016 2534 2758 2815 
Q 2500 3097 2075 3097 
Q 1594 3097 1305 2825 
Q 1016 2553 972 2059 
L 3022 2063 
z
" transform="scale(0.015625)"/>
       <path id="DejaVuSans-20" transform="scale(0.015625)"/>
       <path id="DejaVuSans-73" d="M 2834 3397 
L 2834 2853 
Q 2591 2978 2328 3040 
Q 2066 3103 1784 3103 
Q 1356 3103 1142 2972 
Q 928 2841 928 2578 
Q 928 2378 1081 2264 
Q 1234 2150 1697 2047 
L 1894 2003 
Q 2506 1872 2764 1633 
Q 3022 1394 3022 966 
Q 3022 478 2636 193 
Q 2250 -91 1575 -91 
Q 1294 -91 989 -36 
Q 684 19 347 128 
L 347 722 
Q 666 556 975 473 
Q 1284 391 1588 391 
Q 1994 391 2212 530 
Q 2431 669 2431 922 
Q 2431 1156 2273 1281 
Q 2116 1406 1581 1522 
L 1381 1569 
Q 847 1681 609 1914 
Q 372 2147 372 2553 
Q 372 3047 722 3315 
Q 1072 3584 1716 3584 
Q 2034 3584 2315 3537 
Q 2597 3491 2834 3397 
z
" transform="scale(0.015625)"/>
       <path id="DejaVuSans-6e" d="M 3513 2113 
L 3513 0 
L 2938 0 
L 2938 2094 
Q 2938 2591 2744 2837 
Q 2550 3084 2163 3084 
Q 1697 3084 1428 2787 
Q 1159 2491 1159 1978 
L 1159 0 
L 581 0 
L 581 3500 
L 1159 3500 
L 1159 2956 
Q 1366 3272 1645 3428 
Q 1925 3584 2291 3584 
Q 2894 3584 3203 3211 
Q 3513 2838 3513 2113 
z
" transform="scale(0.015625)"/>
       <path id="DejaVuSans-63" d="M 3122 3366 
L 3122 2828 
Q 2878 2963 2633 3030 
Q 2388 3097 2138 3097 
Q 1578 3097 1268 2742 
Q 959 2388 959 1747 
Q 959 1106 1268 751 
Q 1578 397 2138 397 
Q 2388 397 2633 464 
Q 2878 531 3122 666 
L 3122 134 
Q 2881 22 2623 -34 
Q 2366 -91 2075 -91 
Q 1284 -91 818 406 
Q 353 903 353 1747 
Q 353 2603 823 3093 
Q 1294 3584 2113 3584 
Q 2378 3584 2631 3529 
Q 2884 3475 3122 3366 
z
" transform="scale(0.015625)"/>
       <path id="DejaVuSans-61" d="M 2194 1759 
Q 1497 1759 1228 1600 
Q 959 1441 959 1056 
Q 959 750 1161 570 
Q 1363 391 1709 391 
Q 2188 391 2477 730 
Q 2766 1069 2766 1631 
L 2766 1759 
L 2194 1759 
z
M 3341 1997 
L 3341 0 
L 2766 0 
L 2766 531 
Q 2569 213 2275 61 
Q 1981 -91 1556 -91 
Q 1019 -91 701 211 
Q 384 513 384 1019 
Q 384 1609 779 1909 
Q 1175 2209 1959 2209 
L 2766 2209 
L 2766 2266 
Q 2766 2663 2505 2880 
Q 2244 3097 1772 3097 
Q 1472 3097 1187 3025 
Q 903 2953 641 2809 
L 641 3341 
Q 956 3463 1253 3523 
Q 1550 3584 1831 3584 
Q 2591 3584 2966 3190 
Q 3341 2797 3341 1997 
z
" transform="scale(0.015625)"/>
       <path id="DejaVuSans-72" d="M 2631 2963 
Q 2534 3019 2420 3045 
Q 2306 3072 2169 3072 
Q 1681 3072 1420 2755 
Q 1159 2438 1159 1844 
L 1159 0 
L 581 0 
L 581 3500 
L 1159 3500 
L 1159 2956 
Q 1341 3275 1631 3429 
Q 1922 3584 2338 3584 
Q 2397 3584 2469 3576 
Q 2541 3569 2628 3553 
L 2631 2963 
z
" transform="scale(0.015625)"/>
       <path id="DejaVuSans-28" d="M 1984 4856 
Q 1566 4138 1362 3434 
Q 1159 2731 1159 2009 
Q 1159 1288 1364 580 
Q 1569 -128 1984 -844 
L 1484 -844 
Q 1016 -109 783 600 
Q 550 1309 550 2009 
Q 550 2706 781 3412 
Q 1013 4119 1484 4856 
L 1984 4856 
z
" transform="scale(0.015625)"/>
       <path id="DejaVuSans-29" d="M 513 4856 
L 1013 4856 
Q 1481 4119 1714 3412 
Q 1947 2706 1947 2009 
Q 1947 1309 1714 600 
Q 1481 -109 1013 -844 
L 513 -844 
Q 928 -128 1133 580 
Q 1338 1288 1338 2009 
Q 1338 2731 1133 3434 
Q 928 4138 513 4856 
z
" transform="scale(0.015625)"/>
      </defs>
      <use xlink:href="#DejaVuSans-74"/>
      <use xlink:href="#DejaVuSans-69" transform="translate(39.208984 0)"/>
      <use xlink:href="#DejaVuSans-6d" transform="translate(66.992188 0)"/>
      <use xlink:href="#DejaVuSans-65" transform="translate(164.404297 0)"/>
      <use xlink:href="#DejaVuSans-20" transform="translate(225.927734 0)"/>
      <use xlink:href="#DejaVuSans-73" transform="translate(257.714844 0)"/>
      <use xlink:href="#DejaVuSans-69" transform="translate(309.814453 0)"/>
      <use xlink:href="#DejaVuSans-6e" transform="translate(337.597656 0)"/>
      <use xlink:href="#DejaVuSans-63" transform="translate(400.976562 0)"/>
      <use xlink:href="#DejaVuSans-65" transform="translate(455.957031 0)"/>
      <use xlink:href="#DejaVuSans-20" transform="translate(517.480469 0)"/>
      <use xlink:href="#DejaVuSans-74" transform="translate(549.267578 0)"/>
      <use xlink:href="#DejaVuSans-65" transform="translate(588.476562 0)"/>
      <use xlink:href="#DejaVuSans-73" transform="translate(650 0)"/>
      <use xlink:href="#DejaVuSans-74" transform="translate(702.099609 0)"/>
      <use xlink:href="#DejaVuSans-20" transform="translate(741.308594 0)"/>
      <use xlink:href="#DejaVuSans-73" transform="translate(773.095703 0)"/>
      <use xlink:href="#DejaVuSans-74" transform="translate(825.195312 0)"/>
      <use xlink:href="#DejaVuSans-61" transform="translate(864.404297 0)"/>
      <use xlink:href="#DejaVuSans-72" transform="translate(925.683594 0)"/>
      <use xlink:href="#DejaVuSans-74" transform="translate(966.796875 0)"/>
      <use xlink:href="#DejaVuSans-20" transform="translate(1006.005859 0)"/>
      <use xlink:href="#DejaVuSans-28" transform="translate(1037.792969 0)"/>
      <use xlink:href="#DejaVuSans-73" transform="translate(1076.806641 0)"/>
      <use xlink:href="#DejaVuSans-29" transform="translate(1128.90625 0)"/>
     </g>
    </g>
   </g>
   <g id="matplotlib.axis_2">
    <g id="ytick_1">
     <g id="line2d_11">
      <path d="M 57.2 408.204545 
L 498.6495 408.204545 
" clip-path="url(#p162ee75a05)" style="fill: none; stroke: #b0b0b0; stroke-opacity: 0.3; stroke-width: 0.8; stroke-linecap: square"/>
     </g>
     <g id="line2d_12">
      <defs>
       <path id="mcc8da90d4e" d="M 0 0 
L -3.5 0 
" style="stroke: #000000; stroke-width: 0.8"/>
      </defs>
      <g>
       <use xlink:href="#mcc8da90d4e" x="57.2" y="408.204545" style="stroke: #000000; stroke-width: 0.8"/>
      </g>
     </g>
     <g id="text_7">
      <!-- 0 -->
      <g transform="translate(43.8375 412.003764) scale(0.1 -0.1)">
       <use xlink:href="#DejaVuSans-30"/>
      </g>
     </g>
    </g>
    <g id="ytick_2">
     <g id="line2d_13">
      <path d="M 57.2 335.495436 
L 498.6495 335.495436 
" clip-path="url(#p162ee75a05)" style="fill: none; stroke: #b0b0b0; stroke-opacity: 0.3; stroke-width: 0.8; stroke-linecap: square"/>
     </g>
     <g id="line2d_14">
      <g>
       <use xlink:href="#mcc8da90d4e" x="57.2" y="335.495436" style="stroke: #000000; stroke-width: 0.8"/>
      </g>
     </g>
     <g id="text_8">
      <!-- 200 -->
      <g transform="translate(31.1125 339.294655) scale(0.1 -0.1)">
       <use xlink:href="#DejaVuSans-32"/>
       <use xlink:href="#DejaVuSans-30" transform="translate(63.623047 0)"/>
       <use xlink:href="#DejaVuSans-30" transform="translate(127.246094 0)"/>
      </g>
     </g>
    </g>
    <g id="ytick_3">
     <g id="line2d_15">
      <path d="M 57.2 262.786327 
L 498.6495 262.786327 
" clip-path="url(#p162ee75a05)" style="fill: none; stroke: #b0b0b0; stroke-opacity: 0.3; stroke-width: 0.8; stroke-linecap: square"/>
     </g>
     <g id="line2d_16">
      <g>
       <use xlink:href="#mcc8da90d4e" x="57.2" y="262.786327" style="stroke: #000000; stroke-width: 0.8"/>
      </g>
     </g>
     <g id="text_9">
      <!-- 400 -->
      <g transform="translate(31.1125 266.585546) scale(0.1 -0.1)">
       <use xlink:href="#DejaVuSans-34"/>
       <use xlink:href="#DejaVuSans-30" transform="translate(63.623047 0)"/>
       <use xlink:href="#DejaVuSans-30" transform="translate(127.246094 0)"/>
      </g>
     </g>
    </g>
    <g id="ytick_4">
     <g id="line2d_17">
      <path d="M 57.2 190.077218 
L 498.6495 190.077218 
" clip-path="url(#p162ee75a05)" style="fill: none; stroke: #b0b0b0; stroke-opacity: 0.3; stroke-width: 0.8; stroke-linecap: square"/>
     </g>
     <g id="line2d_18">
      <g>
       <use xlink:href="#mcc8da90d4e" x="57.2" y="190.077218" style="stroke: #000000; stroke-width: 0.8"/>
      </g>
     </g>
     <g id="text_10">
      <!-- 600 -->
      <g transform="translate(31.1125 193.876437) scale(0.1 -0.1)">
       <defs>
        <path id="DejaVuSans-36" d="M 2113 2584 
Q 1688 2584 1439 2293 
Q 1191 2003 1191 1497 
Q 1191 994 1439 701 
Q 1688 409 2113 409 
Q 2538 409 2786 701 
Q 3034 994 3034 1497 
Q 3034 2003 2786 2293 
Q 2538 2584 2113 2584 
z
M 3366 4563 
L 3366 3988 
Q 3128 4100 2886 4159 
Q 2644 4219 2406 4219 
Q 1781 4219 1451 3797 
Q 1122 3375 1075 2522 
Q 1259 2794 1537 2939 
Q 1816 3084 2150 3084 
Q 2853 3084 3261 2657 
Q 3669 2231 3669 1497 
Q 3669 778 3244 343 
Q 2819 -91 2113 -91 
Q 1303 -91 875 529 
Q 447 1150 447 2328 
Q 447 3434 972 4092 
Q 1497 4750 2381 4750 
Q 2619 4750 2861 4703 
Q 3103 4656 3366 4563 
z
" transform="scale(0.015625)"/>
       </defs>
       <use xlink:href="#DejaVuSans-36"/>
       <use xlink:href="#DejaVuSans-30" transform="translate(63.623047 0)"/>
       <use xlink:href="#DejaVuSans-30" transform="translate(127.246094 0)"/>
      </g>
     </g>
    </g>
    <g id="ytick_5">
     <g id="line2d_19">
      <path d="M 57.2 117.368109 
L 498.6495 117.368109 
" clip-path="url(#p162ee75a05)" style="fill: none; stroke: #b0b0b0; stroke-opacity: 0.3; stroke-width: 0.8; stroke-linecap: square"/>
     </g>
     <g id="line2d_20">
      <g>
       <use xlink:href="#mcc8da90d4e" x="57.2" y="117.368109" style="stroke: #000000; stroke-width: 0.8"/>
      </g>
     </g>
     <g id="text_11">
      <!-- 800 -->
      <g transform="translate(31.1125 121.167328) scale(0.1 -0.1)">
       <defs>
        <path id="DejaVuSans-38" d="M 2034 2216 
Q 1584 2216 1326 1975 
Q 1069 1734 1069 1313 
Q 1069 891 1326 650 
Q 1584 409 2034 409 
Q 2484 409 2743 651 
Q 3003 894 3003 1313 
Q 3003 1734 2745 1975 
Q 2488 2216 2034 2216 
z
M 1403 2484 
Q 997 2584 770 2862 
Q 544 3141 544 3541 
Q 544 4100 942 4425 
Q 1341 4750 2034 4750 
Q 2731 4750 3128 4425 
Q 3525 4100 3525 3541 
Q 3525 3141 3298 2862 
Q 3072 2584 2669 2484 
Q 3125 2378 3379 2068 
Q 3634 1759 3634 1313 
Q 3634 634 3220 271 
Q 2806 -91 2034 -91 
Q 1263 -91 848 271 
Q 434 634 434 1313 
Q 434 1759 690 2068 
Q 947 2378 1403 2484 
z
M 1172 3481 
Q 1172 3119 1398 2916 
Q 1625 2713 2034 2713 
Q 2441 2713 2670 2916 
Q 2900 3119 2900 3481 
Q 2900 3844 2670 4047 
Q 2441 4250 2034 4250 
Q 1625 4250 1398 4047 
Q 1172 3844 1172 3481 
z
" transform="scale(0.015625)"/>
       </defs>
       <use xlink:href="#DejaVuSans-38"/>
       <use xlink:href="#DejaVuSans-30" transform="translate(63.623047 0)"/>
       <use xlink:href="#DejaVuSans-30" transform="translate(127.246094 0)"/>
      </g>
     </g>
    </g>
    <g id="ytick_6">
     <g id="line2d_21">
      <path d="M 57.2 44.659 
L 498.6495 44.659 
" clip-path="url(#p162ee75a05)" style="fill: none; stroke: #b0b0b0; stroke-opacity: 0.3; stroke-width: 0.8; stroke-linecap: square"/>
     </g>
     <g id="line2d_22">
      <g>
       <use xlink:href="#mcc8da90d4e" x="57.2" y="44.659" style="stroke: #000000; stroke-width: 0.8"/>
      </g>
     </g>
     <g id="text_12">
      <!-- 1000 -->
      <g transform="translate(24.75 48.458219) scale(0.1 -0.1)">
       <use xlink:href="#DejaVuSans-31"/>
       <use xlink:href="#DejaVuSans-30" transform="translate(63.623047 0)"/>
       <use xlink:href="#DejaVuSans-30" transform="translate(127.246094 0)"/>
       <use xlink:href="#DejaVuSans-30" transform="translate(190.869141 0)"/>
      </g>
     </g>
    </g>
    <g id="text_13">
     <!-- completed requests per second (1 s bins) -->
     <g transform="translate(18.670312 330.085938) rotate(-90) scale(0.1 -0.1)">
      <defs>
       <path id="DejaVuSans-6f" d="M 1959 3097 
Q 1497 3097 1228 2736 
Q 959 2375 959 1747 
Q 959 1119 1226 758 
Q 1494 397 1959 397 
Q 2419 397 2687 759 
Q 2956 1122 2956 1747 
Q 2956 2369 2687 2733 
Q 2419 3097 1959 3097 
z
M 1959 3584 
Q 2709 3584 3137 3096 
Q 3566 2609 3566 1747 
Q 3566 888 3137 398 
Q 2709 -91 1959 -91 
Q 1206 -91 779 398 
Q 353 888 353 1747 
Q 353 2609 779 3096 
Q 1206 3584 1959 3584 
z
" transform="scale(0.015625)"/>
       <path id="DejaVuSans-70" d="M 1159 525 
L 1159 -1331 
L 581 -1331 
L 581 3500 
L 1159 3500 
L 1159 2969 
Q 1341 3281 1617 3432 
Q 1894 3584 2278 3584 
Q 2916 3584 3314 3078 
Q 3713 2572 3713 1747 
Q 3713 922 3314 415 
Q 2916 -91 2278 -91 
Q 1894 -91 1617 61 
Q 1341 213 1159 525 
z
M 3116 1747 
Q 3116 2381 2855 2742 
Q 2594 3103 2138 3103 
Q 1681 3103 1420 2742 
Q 1159 2381 1159 1747 
Q 1159 1113 1420 752 
Q 1681 391 2138 391 
Q 2594 391 2855 752 
Q 3116 1113 3116 1747 
z
" transform="scale(0.015625)"/>
       <path id="DejaVuSans-6c" d="M 603 4863 
L 1178 4863 
L 1178 0 
L 603 0 
L 603 4863 
z
" transform="scale(0.015625)"/>
       <path id="DejaVuSans-64" d="M 2906 2969 
L 2906 4863 
L 3481 4863 
L 3481 0 
L 2906 0 
L 2906 525 
Q 2725 213 2448 61 
Q 2172 -91 1784 -91 
Q 1150 -91 751 415 
Q 353 922 353 1747 
Q 353 2572 751 3078 
Q 1150 3584 1784 3584 
Q 2172 3584 2448 3432 
Q 2725 3281 2906 2969 
z
M 947 1747 
Q 947 1113 1208 752 
Q 1469 391 1925 391 
Q 2381 391 2643 752 
Q 2906 1113 2906 1747 
Q 2906 2381 2643 2742 
Q 2381 3103 1925 3103 
Q 1469 3103 1208 2742 
Q 947 2381 947 1747 
z
" transform="scale(0.015625)"/>
       <path id="DejaVuSans-71" d="M 947 1747 
Q 947 1113 1208 752 
Q 1469 391 1925 391 
Q 2381 391 2643 752 
Q 2906 1113 2906 1747 
Q 2906 2381 2643 2742 
Q 2381 3103 1925 3103 
Q 1469 3103 1208 2742 
Q 947 2381 947 1747 
z
M 2906 525 
Q 2725 213 2448 61 
Q 2172 -91 1784 -91 
Q 1150 -91 751 415 
Q 353 922 353 1747 
Q 353 2572 751 3078 
Q 1150 3584 1784 3584 
Q 2172 3584 2448 3432 
Q 2725 3281 2906 2969 
L 2906 3500 
L 3481 3500 
L 3481 -1331 
L 2906 -1331 
L 2906 525 
z
" transform="scale(0.015625)"/>
       <path id="DejaVuSans-75" d="M 544 1381 
L 544 3500 
L 1119 3500 
L 1119 1403 
Q 1119 906 1312 657 
Q 1506 409 1894 409 
Q 2359 409 2629 706 
Q 2900 1003 2900 1516 
L 2900 3500 
L 3475 3500 
L 3475 0 
L 2900 0 
L 2900 538 
Q 2691 219 2414 64 
Q 2138 -91 1772 -91 
Q 1169 -91 856 284 
Q 544 659 544 1381 
z
M 1991 3584 
L 1991 3584 
z
" transform="scale(0.015625)"/>
       <path id="DejaVuSans-62" d="M 3116 1747 
Q 3116 2381 2855 2742 
Q 2594 3103 2138 3103 
Q 1681 3103 1420 2742 
Q 1159 2381 1159 1747 
Q 1159 1113 1420 752 
Q 1681 391 2138 391 
Q 2594 391 2855 752 
Q 3116 1113 3116 1747 
z
M 1159 2969 
Q 1341 3281 1617 3432 
Q 1894 3584 2278 3584 
Q 2916 3584 3314 3078 
Q 3713 2572 3713 1747 
Q 3713 922 3314 415 
Q 2916 -91 2278 -91 
Q 1894 -91 1617 61 
Q 1341 213 1159 525 
L 1159 0 
L 581 0 
L 581 4863 
L 1159 4863 
L 1159 2969 
z
" transform="scale(0.015625)"/>
      </defs>
      <use xlink:href="#DejaVuSans-63"/>
      <use xlink:href="#DejaVuSans-6f" transform="translate(54.980469 0)"/>
      <use xlink:href="#DejaVuSans-6d" transform="translate(116.162109 0)"/>
      <use xlink:href="#DejaVuSans-70" transform="translate(213.574219 0)"/>
      <use xlink:href="#DejaVuSans-6c" transform="translate(277.050781 0)"/>
      <use xlink:href="#DejaVuSans-65" transform="translate(304.833984 0)"/>
      <use xlink:href="#DejaVuSans-74" transform="translate(366.357422 0)"/>
      <use xlink:href="#DejaVuSans-65" transform="translate(405.566406 0)"/>
      <use xlink:href="#DejaVuSans-64" transform="translate(467.089844 0)"/>
      <use xlink:href="#DejaVuSans-20" transform="translate(530.566406 0)"/>
      <use xlink:href="#DejaVuSans-72" transform="translate(562.353516 0)"/>
      <use xlink:href="#DejaVuSans-65" transform="translate(601.216797 0)"/>
      <use xlink:href="#DejaVuSans-71" transform="translate(662.740234 0)"/>
      <use xlink:href="#DejaVuSans-75" transform="translate(726.216797 0)"/>
      <use xlink:href="#DejaVuSans-65" transform="translate(789.595703 0)"/>
      <use xlink:href="#DejaVuSans-73" transform="translate(851.119141 0)"/>
      <use xlink:href="#DejaVuSans-74" transform="translate(903.21875 0)"/>
      <use xlink:href="#DejaVuSans-73" transform="translate(942.427734 0)"/>
      <use xlink:href="#DejaVuSans-20" transform="translate(994.527344 0)"/>
      <use xlink:href="#DejaVuSans-70" transform="translate(1026.314453 0)"/>
      <use xlink:href="#DejaVuSans-65" transform="translate(1089.791016 0)"/>
      <use xlink:href="#DejaVuSans-72" transform="translate(1151.314453 0)"/>
      <use xlink:href="#DejaVuSans-20" transform="translate(1192.427734 0)"/>
      <use xlink:href="#DejaVuSans-73" transform="translate(1224.214844 0)"/>
      <use xlink:href="#DejaVuSans-65" transform="translate(1276.314453 0)"/>
      <use xlink:href="#DejaVuSans-63" transform="translate(1337.837891 0)"/>
      <use xlink:href="#DejaVuSans-6f" transform="translate(1392.818359 0)"/>
      <use xlink:href="#DejaVuSans-6e" transform="translate(1454 0)"/>
      <use xlink:href="#DejaVuSans-64" transform="translate(1517.378906 0)"/>
      <use xlink:href="#DejaVuSans-20" transform="translate(1580.855469 0)"/>
      <use xlink:href="#DejaVuSans-28" transform="translate(1612.642578 0)"/>
      <use xlink:href="#DejaVuSans-31" transform="translate(1651.65625 0)"/>
      <use xlink:href="#DejaVuSans-20" transform="translate(1715.279297 0)"/>
      <use xlink:href="#DejaVuSans-73" transform="translate(1747.066406 0)"/>
      <use xlink:href="#DejaVuSans-20" transform="translate(1799.166016 0)"/>
      <use xlink:href="#DejaVuSans-62" transform="translate(1830.953125 0)"/>
      <use xlink:href="#DejaVuSans-69" transform="translate(1894.429688 0)"/>
      <use xlink:href="#DejaVuSans-6e" transform="translate(1922.212891 0)"/>
      <use xlink:href="#DejaVuSans-73" transform="translate(1985.591797 0)"/>
      <use xlink:href="#DejaVuSans-29" transform="translate(2037.691406 0)"/>
     </g>
    </g>
   </g>
   <g id="line2d_23">
    <path d="M 77.265886 349.673713 
L 78.21239 99.190832 
L 79.158895 102.826287 
L 80.105399 102.826287 
L 81.051903 106.461743 
L 83.891415 106.461743 
L 84.837919 124.63902 
L 85.784423 106.461743 
L 86.730927 110.097198 
L 87.677431 106.461743 
L 88.623935 106.461743 
L 89.570439 121.003565 
L 90.516943 110.097198 
L 91.463447 124.63902 
L 92.409952 106.461743 
L 93.356456 106.461743 
L 94.30296 107.915925 
L 95.249464 101.372105 
L 96.195968 124.63902 
L 97.142472 160.993575 
L 98.088976 208.254496 
L 99.03548 230.067228 
L 99.981984 255.515416 
L 101.874992 284.59906 
L 103.768 306.411793 
L 104.714505 313.682704 
L 105.661009 317.318159 
L 106.607513 328.224525 
L 114.179545 357.308169 
L 116.072553 357.308169 
L 117.965562 364.57908 
L 119.85857 364.57908 
L 120.805074 368.214535 
L 121.751578 368.214535 
L 122.698082 371.849991 
L 128.377106 371.849991 
L 129.32361 375.485446 
L 130.270114 371.849991 
L 134.056131 371.849991 
L 135.002635 375.485446 
L 135.949139 371.849991 
L 139.735155 371.849991 
L 140.681659 375.485446 
L 141.628163 371.849991 
L 144.467676 371.849991 
L 145.41418 375.485446 
L 146.360684 371.849991 
L 150.1467 371.849991 
L 151.093204 375.485446 
L 152.039708 371.849991 
L 155.825724 371.849991 
L 156.772229 375.485446 
L 157.718733 371.849991 
L 161.504749 371.849991 
L 162.451253 375.485446 
L 163.397757 371.849991 
L 167.183773 371.849991 
L 168.130277 375.485446 
L 169.076782 371.849991 
L 172.862798 371.849991 
L 173.809302 375.485446 
L 174.755806 371.849991 
L 178.541822 371.849991 
L 179.488326 375.485446 
L 180.43483 371.849991 
L 184.220847 371.849991 
L 185.167351 375.485446 
L 186.113855 371.849991 
L 189.899871 371.849991 
L 190.846375 375.485446 
L 191.792879 371.849991 
L 194.632392 371.849991 
L 195.578896 375.485446 
L 196.5254 371.849991 
L 200.311416 371.849991 
L 201.25792 375.485446 
L 202.204424 371.849991 
L 205.99044 371.849991 
L 206.936944 375.485446 
L 207.883449 371.849991 
L 211.669465 371.849991 
L 212.615969 375.485446 
L 213.562473 371.849991 
L 217.348489 371.849991 
L 218.294993 375.485446 
L 219.241497 371.849991 
L 223.027514 371.849991 
L 223.974018 375.485446 
L 224.920522 371.849991 
L 227.760034 371.849991 
L 228.706538 375.485446 
L 229.653042 371.849991 
L 233.439059 371.849991 
L 234.385563 375.485446 
L 235.332067 371.849991 
L 238.171579 371.849991 
L 239.118083 375.485446 
L 240.064587 371.849991 
L 242.904099 371.849991 
L 243.850603 375.485446 
L 244.797107 371.849991 
L 248.583124 371.849991 
L 249.529628 375.485446 
L 250.476132 371.849991 
L 253.315644 371.849991 
L 254.262148 375.485446 
L 255.208652 371.849991 
L 258.994669 371.849991 
L 259.941173 375.485446 
L 260.887677 371.849991 
L 263.727189 371.849991 
L 264.673693 375.485446 
L 265.620197 371.849991 
L 268.459709 371.849991 
L 269.406213 375.485446 
L 270.352717 371.849991 
L 274.138734 371.849991 
L 275.085238 375.485446 
L 276.031742 371.849991 
L 278.871254 371.849991 
L 279.817758 375.485446 
L 280.764262 371.849991 
L 284.550279 371.849991 
L 285.496783 375.485446 
L 286.443287 371.849991 
L 289.282799 371.849991 
L 290.229303 375.485446 
L 291.175807 371.849991 
L 294.015319 371.849991 
L 294.961823 374.39481 
L 295.908327 372.940628 
L 296.854831 371.849991 
L 299.694344 371.849991 
L 300.640848 375.485446 
L 301.587352 371.849991 
L 305.373368 371.849991 
L 306.319872 375.485446 
L 307.266376 371.849991 
L 310.105889 371.849991 
L 311.052393 375.485446 
L 311.998897 371.849991 
L 315.784913 371.849991 
L 316.731417 375.485446 
L 317.677921 371.849991 
L 320.517433 371.849991 
L 321.463937 375.485446 
L 322.410441 371.849991 
L 325.249954 371.849991 
L 326.196458 375.485446 
L 327.142962 371.849991 
L 329.982474 371.849991 
L 330.928978 375.485446 
L 331.875482 371.849991 
L 335.661498 371.849991 
L 336.608003 375.485446 
L 337.554507 371.849991 
L 340.394019 371.849991 
L 341.340523 374.39481 
L 342.287027 372.940628 
L 343.233531 371.849991 
L 346.073043 371.849991 
L 347.019547 375.485446 
L 347.966051 371.849991 
L 351.752068 371.849991 
L 352.698572 375.485446 
L 353.645076 371.849991 
L 356.484588 371.849991 
L 357.431092 375.485446 
L 358.377596 371.849991 
L 362.163613 371.849991 
L 363.110117 375.485446 
L 364.056621 371.849991 
L 366.896133 371.849991 
L 367.842637 375.485446 
L 368.789141 371.849991 
L 372.575157 371.849991 
L 373.521661 375.485446 
L 374.468166 371.849991 
L 377.307678 371.849991 
L 378.254182 375.485446 
L 379.200686 371.849991 
L 382.986702 371.849991 
L 383.933206 375.485446 
L 384.87971 371.849991 
L 387.719223 371.849991 
L 388.665727 375.485446 
L 389.612231 371.849991 
L 392.451743 371.849991 
L 393.398247 375.485446 
L 394.344751 371.849991 
L 398.130767 371.849991 
L 399.077271 375.485446 
L 400.023776 371.849991 
L 403.809792 371.849991 
L 404.756296 375.485446 
L 405.7028 371.849991 
L 408.542312 371.849991 
L 409.488816 375.485446 
L 410.43532 371.849991 
L 413.274833 371.849991 
L 414.221337 375.485446 
L 415.167841 371.849991 
L 418.953857 371.849991 
L 419.900361 375.485446 
L 420.846865 371.849991 
L 423.686377 371.849991 
L 424.632881 375.485446 
L 425.579386 371.849991 
L 429.365402 371.849991 
L 430.311906 375.485446 
L 431.25841 371.849991 
L 434.097922 371.849991 
L 435.044426 375.485446 
L 435.99093 371.849991 
L 439.776947 371.849991 
L 440.723451 375.485446 
L 441.669955 371.849991 
L 444.509467 371.849991 
L 445.455971 375.485446 
L 446.402475 371.849991 
L 450.188491 371.849991 
L 451.134995 375.485446 
L 452.0815 371.849991 
L 454.921012 371.849991 
L 455.867516 375.485446 
L 456.81402 371.849991 
L 460.600036 371.849991 
L 461.54654 375.485446 
L 462.493044 371.849991 
L 465.332557 371.849991 
L 466.279061 375.485446 
L 467.225565 371.849991 
L 468.172069 371.849991 
L 469.118573 375.485446 
L 470.065077 371.849991 
L 471.011581 371.849991 
L 471.958085 375.485446 
L 472.904589 371.849991 
L 473.851093 371.849991 
L 474.797597 375.485446 
L 475.744101 371.849991 
L 476.690605 371.849991 
L 477.63711 404.932636 
L 478.583614 408.204545 
L 478.583614 408.204545 
" clip-path="url(#p162ee75a05)" style="fill: none; stroke: #1f77b4; stroke-opacity: 0.9; stroke-width: 1.6; stroke-linecap: square"/>
   </g>
   <g id="line2d_24">
    <path d="M 77.265886 324.58907 
L 78.21239 84.64901 
L 79.158895 81.013555 
L 80.105399 81.013555 
L 81.051903 84.64901 
L 81.998407 81.013555 
L 82.944911 84.64901 
L 83.891415 81.013555 
L 84.837919 84.64901 
L 85.784423 81.013555 
L 86.730927 84.64901 
L 87.677431 81.013555 
L 88.623935 84.64901 
L 89.570439 81.013555 
L 90.516943 81.013555 
L 91.463447 84.64901 
L 92.409952 81.013555 
L 93.356456 84.64901 
L 94.30296 81.013555 
L 95.249464 81.013555 
L 96.195968 113.732654 
L 97.142472 171.899941 
L 98.088976 208.254496 
L 99.03548 237.338139 
L 99.981984 262.786327 
L 100.928488 277.328149 
L 103.768 310.047248 
L 104.714505 313.682704 
L 105.661009 324.58907 
L 106.607513 328.224525 
L 107.554017 335.495436 
L 108.500521 335.495436 
L 109.447025 342.766347 
L 110.393529 346.401803 
L 111.340033 346.401803 
L 112.286537 353.672714 
L 113.233041 353.672714 
L 114.179545 357.308169 
L 115.126049 357.308169 
L 116.072553 360.943625 
L 117.019057 360.943625 
L 117.965562 364.57908 
L 118.912066 364.57908 
L 119.85857 364.942626 
L 120.805074 371.486445 
L 121.751578 368.214535 
L 122.698082 371.849991 
L 123.644586 368.214535 
L 124.59109 375.485446 
L 125.537594 371.849991 
L 129.32361 371.849991 
L 130.270114 375.485446 
L 131.216619 371.849991 
L 133.109627 371.849991 
L 134.056131 379.120902 
L 135.002635 408.204545 
L 478.583614 408.204545 
L 478.583614 408.204545 
" clip-path="url(#p162ee75a05)" style="fill: none; stroke: #ff7f0e; stroke-opacity: 0.9; stroke-width: 1.6; stroke-linecap: square"/>
   </g>
   <g id="line2d_25">
    <path d="M 77.265886 48.294456 
L 78.21239 44.659 
L 94.30296 44.659 
L 95.249464 45.022546 
L 96.195968 45.749637 
L 122.698082 45.749637 
L 123.644586 45.386091 
L 124.59109 44.659 
L 133.109627 44.659 
L 134.056131 371.849991 
L 135.002635 408.204545 
L 478.583614 408.204545 
L 478.583614 408.204545 
" clip-path="url(#p162ee75a05)" style="fill: none; stroke: #2ca02c; stroke-opacity: 0.9; stroke-width: 1.6; stroke-linecap: square"/>
   </g>
   <g id="line2d_26">
    <path d="M 77.265886 306.411793 
L 78.21239 44.659 
L 86.730927 44.659 
L 87.677431 44.295455 
L 88.623935 45.022546 
L 89.570439 44.295455 
L 90.516943 45.022546 
L 91.463447 44.295455 
L 92.409952 45.022546 
L 93.356456 44.295455 
L 94.30296 44.659 
L 95.249464 44.659 
L 96.195968 45.749637 
L 107.554017 45.749637 
L 108.500521 45.386091 
L 109.447025 46.113182 
L 110.393529 45.386091 
L 111.340033 46.113182 
L 112.286537 45.386091 
L 113.233041 46.113182 
L 114.179545 45.386091 
L 115.126049 45.749637 
L 123.644586 45.749637 
L 124.59109 45.022546 
L 125.537594 44.659 
L 133.109627 44.659 
L 134.056131 114.096199 
L 135.002635 408.204545 
L 478.583614 408.204545 
L 478.583614 408.204545 
" clip-path="url(#p162ee75a05)" style="fill: none; stroke: #d62728; stroke-opacity: 0.9; stroke-width: 1.6; stroke-linecap: square"/>
   </g>
   <g id="patch_4">
    <path d="M 57.2 426.4 
L 57.2 26.1 
" style="fill: none; stroke: #000000; stroke-width: 0.8; stroke-linejoin: miter; stroke-linecap: square"/>
   </g>
   <g id="patch_5">
    <path d="M 498.6495 426.4 
L 498.6495 26.1 
" style="fill: none; stroke: #000000; stroke-width: 0.8; stroke-linejoin: miter; stroke-linecap: square"/>
   </g>
   <g id="patch_6">
    <path d="M 57.2 426.4 
L 498.6495 426.4 
" style="fill: none; stroke: #000000; stroke-width: 0.8; stroke-linejoin: miter; stroke-linecap: square"/>
   </g>
   <g id="patch_7">
    <path d="M 57.2 26.1 
L 498.6495 26.1 
" style="fill: none; stroke: #000000; stroke-width: 0.8; stroke-linejoin: miter; stroke-linecap: square"/>
   </g>
   <g id="text_14">
    <!-- baseline ramp 10 → 100 ms -->
    <g style="fill: #ff7f0e; opacity: 0.9" transform="translate(61.601611 31.373316) scale(0.0694 -0.0694)">
     <defs>
      <path id="DejaVuSans-2192" d="M 5050 2147 
L 5050 1866 
L 3822 638 
L 3447 1013 
L 4175 1741 
L 366 1741 
L 366 2272 
L 4175 2272 
L 3447 3000 
L 3822 3375 
L 5050 2147 
z
" transform="scale(0.015625)"/>
     </defs>
     <use xlink:href="#DejaVuSans-62"/>
     <use xlink:href="#DejaVuSans-61" transform="translate(63.476562 0)"/>
     <use xlink:href="#DejaVuSans-73" transform="translate(124.755859 0)"/>
     <use xlink:href="#DejaVuSans-65" transform="translate(176.855469 0)"/>
     <use xlink:href="#DejaVuSans-6c" transform="translate(238.378906 0)"/>
     <use xlink:href="#DejaVuSans-69" transform="translate(266.162109 0)"/>
     <use xlink:href="#DejaVuSans-6e" transform="translate(293.945312 0)"/>
     <use xlink:href="#DejaVuSans-65" transform="translate(357.324219 0)"/>
     <use xlink:href="#DejaVuSans-20" transform="translate(418.847656 0)"/>
     <use xlink:href="#DejaVuSans-72" transform="translate(450.634766 0)"/>
     <use xlink:href="#DejaVuSans-61" transform="translate(491.748047 0)"/>
     <use xlink:href="#DejaVuSans-6d" transform="translate(553.027344 0)"/>
     <use xlink:href="#DejaVuSans-70" transform="translate(650.439453 0)"/>
     <use xlink:href="#DejaVuSans-20" transform="translate(713.916016 0)"/>
     <use xlink:href="#DejaVuSans-31" transform="translate(745.703125 0)"/>
     <use xlink:href="#DejaVuSans-30" transform="translate(809.326172 0)"/>
     <use xlink:href="#DejaVuSans-20" transform="translate(872.949219 0)"/>
     <use xlink:href="#DejaVuSans-2192" transform="translate(904.736328 0)"/>
     <use xlink:href="#DejaVuSans-20" transform="translate(988.525391 0)"/>
     <use xlink:href="#DejaVuSans-31" transform="translate(1020.3125 0)"/>
     <use xlink:href="#DejaVuSans-30" transform="translate(1083.935547 0)"/>
     <use xlink:href="#DejaVuSans-30" transform="translate(1147.558594 0)"/>
     <use xlink:href="#DejaVuSans-20" transform="translate(1211.181641 0)"/>
     <use xlink:href="#DejaVuSans-6d" transform="translate(1242.96875 0)"/>
     <use xlink:href="#DejaVuSans-73" transform="translate(1340.380859 0)"/>
    </g>
   </g>
   <g id="text_15">
    <!-- Sustained slowdown (10ms → 100ms baseline ramp) — completed RPS vs. time (1 s bins) -->
    <g transform="translate(8.666313 20.1) scale(0.12 -0.12)">
     <defs>
      <path id="DejaVuSans-53" d="M 3425 4513 
L 3425 3897 
Q 3066 4069 2747 4153 
Q 2428 4238 2131 4238 
Q 1616 4238 1336 4038 
Q 1056 3838 1056 3469 
Q 1056 3159 1242 3001 
Q 1428 2844 1947 2747 
L 2328 2669 
Q 3034 2534 3370 2195 
Q 3706 1856 3706 1288 
Q 3706 609 3251 259 
Q 2797 -91 1919 -91 
Q 1588 -91 1214 -16 
Q 841 59 441 206 
L 441 856 
Q 825 641 1194 531 
Q 1563 422 1919 422 
Q 2459 422 2753 634 
Q 3047 847 3047 1241 
Q 3047 1584 2836 1778 
Q 2625 1972 2144 2069 
L 1759 2144 
Q 1053 2284 737 2584 
Q 422 2884 422 3419 
Q 422 4038 858 4394 
Q 1294 4750 2059 4750 
Q 2388 4750 2728 4690 
Q 3069 4631 3425 4513 
z
" transform="scale(0.015625)"/>
      <path id="DejaVuSans-77" d="M 269 3500 
L 844 3500 
L 1563 769 
L 2278 3500 
L 2956 3500 
L 3675 769 
L 4391 3500 
L 4966 3500 
L 4050 0 
L 3372 0 
L 2619 2869 
L 1863 0 
L 1184 0 
L 269 3500 
z
" transform="scale(0.015625)"/>
      <path id="DejaVuSans-2014" d="M 313 1978 
L 6088 1978 
L 6088 1528 
L 313 1528 
L 313 1978 
z
" transform="scale(0.015625)"/>
      <path id="DejaVuSans-52" d="M 2841 2188 
Q 3044 2119 3236 1894 
Q 3428 1669 3622 1275 
L 4263 0 
L 3584 0 
L 2988 1197 
Q 2756 1666 2539 1819 
Q 2322 1972 1947 1972 
L 1259 1972 
L 1259 0 
L 628 0 
L 628 4666 
L 2053 4666 
Q 2853 4666 3247 4331 
Q 3641 3997 3641 3322 
Q 3641 2881 3436 2590 
Q 3231 2300 2841 2188 
z
M 1259 4147 
L 1259 2491 
L 2053 2491 
Q 2509 2491 2742 2702 
Q 2975 2913 2975 3322 
Q 2975 3731 2742 3939 
Q 2509 4147 2053 4147 
L 1259 4147 
z
" transform="scale(0.015625)"/>
      <path id="DejaVuSans-50" d="M 1259 4147 
L 1259 2394 
L 2053 2394 
Q 2494 2394 2734 2622 
Q 2975 2850 2975 3272 
Q 2975 3691 2734 3919 
Q 2494 4147 2053 4147 
L 1259 4147 
z
M 628 4666 
L 2053 4666 
Q 2838 4666 3239 4311 
Q 3641 3956 3641 3272 
Q 3641 2581 3239 2228 
Q 2838 1875 2053 1875 
L 1259 1875 
L 1259 0 
L 628 0 
L 628 4666 
z
" transform="scale(0.015625)"/>
      <path id="DejaVuSans-76" d="M 191 3500 
L 800 3500 
L 1894 563 
L 2988 3500 
L 3597 3500 
L 2284 0 
L 1503 0 
L 191 3500 
z
" transform="scale(0.015625)"/>
      <path id="DejaVuSans-2e" d="M 684 794 
L 1344 794 
L 1344 0 
L 684 0 
L 684 794 
z
" transform="scale(0.015625)"/>
     </defs>
     <use xlink:href="#DejaVuSans-53"/>
     <use xlink:href="#DejaVuSans-75" transform="translate(63.476562 0)"/>
     <use xlink:href="#DejaVuSans-73" transform="translate(126.855469 0)"/>
     <use xlink:href="#DejaVuSans-74" transform="translate(178.955078 0)"/>
     <use xlink:href="#DejaVuSans-61" transform="translate(218.164062 0)"/>
     <use xlink:href="#DejaVuSans-69" transform="translate(279.443359 0)"/>
     <use xlink:href="#DejaVuSans-6e" transform="translate(307.226562 0)"/>
     <use xlink:href="#DejaVuSans-65" transform="translate(370.605469 0)"/>
     <use xlink:href="#DejaVuSans-64" transform="translate(432.128906 0)"/>
     <use xlink:href="#DejaVuSans-20" transform="translate(495.605469 0)"/>
     <use xlink:href="#DejaVuSans-73" transform="translate(527.392578 0)"/>
     <use xlink:href="#DejaVuSans-6c" transform="translate(579.492188 0)"/>
     <use xlink:href="#DejaVuSans-6f" transform="translate(607.275391 0)"/>
     <use xlink:href="#DejaVuSans-77" transform="translate(668.457031 0)"/>
     <use xlink:href="#DejaVuSans-64" transform="translate(750.244141 0)"/>
     <use xlink:href="#DejaVuSans-6f" transform="translate(813.720703 0)"/>
     <use xlink:href="#DejaVuSans-77" transform="translate(874.902344 0)"/>
     <use xlink:href="#DejaVuSans-6e" transform="translate(956.689453 0)"/>
     <use xlink:href="#DejaVuSans-20" transform="translate(1020.068359 0)"/>
     <use xlink:href="#DejaVuSans-28" transform="translate(1051.855469 0)"/>
     <use xlink:href="#DejaVuSans-31" transform="translate(1090.869141 0)"/>
     <use xlink:href="#DejaVuSans-30" transform="translate(1154.492188 0)"/>
     <use xlink:href="#DejaVuSans-6d" transform="translate(1218.115234 0)"/>
     <use xlink:href="#DejaVuSans-73" transform="translate(1315.527344 0)"/>
     <use xlink:href="#DejaVuSans-20" transform="translate(1367.626953 0)"/>
     <use xlink:href="#DejaVuSans-2192" transform="translate(1399.414062 0)"/>
     <use xlink:href="#DejaVuSans-20" transform="translate(1483.203125 0)"/>
     <use xlink:href="#DejaVuSans-31" transform="translate(1514.990234 0)"/>
     <use xlink:href="#DejaVuSans-30" transform="translate(1578.613281 0)"/>
     <use xlink:href="#DejaVuSans-30" transform="translate(1642.236328 0)"/>
     <use xlink:href="#DejaVuSans-6d" transform="translate(1705.859375 0)"/>
     <use xlink:href="#DejaVuSans-73" transform="translate(1803.271484 0)"/>
     <use xlink:href="#DejaVuSans-20" transform="translate(1855.371094 0)"/>
     <use xlink:href="#DejaVuSans-62" transform="translate(1887.158203 0)"/>
     <use xlink:href="#DejaVuSans-61" transform="translate(1950.634766 0)"/>
     <use xlink:href="#DejaVuSans-73" transform="translate(2011.914062 0)"/>
     <use xlink:href="#DejaVuSans-65" transform="translate(2064.013672 0)"/>
     <use xlink:href="#DejaVuSans-6c" transform="translate(2125.537109 0)"/>
     <use xlink:href="#DejaVuSans-69" transform="translate(2153.320312 0)"/>
     <use xlink:href="#DejaVuSans-6e" transform="translate(2181.103516 0)"/>
     <use xlink:href="#DejaVuSans-65" transform="translate(2244.482422 0)"/>
     <use xlink:href="#DejaVuSans-20" transform="translate(2306.005859 0)"/>
     <use xlink:href="#DejaVuSans-72" transform="translate(2337.792969 0)"/>
     <use xlink:href="#DejaVuSans-61" transform="translate(2378.90625 0)"/>
     <use xlink:href="#DejaVuSans-6d" transform="translate(2440.185547 0)"/>
     <use xlink:href="#DejaVuSans-70" transform="translate(2537.597656 0)"/>
     <use xlink:href="#DejaVuSans-29" transform="translate(2601.074219 0)"/>
     <use xlink:href="#DejaVuSans-20" transform="translate(2640.087891 0)"/>
     <use xlink:href="#DejaVuSans-2014" transform="translate(2671.875 0)"/>
     <use xlink:href="#DejaVuSans-20" transform="translate(2771.875 0)"/>
     <use xlink:href="#DejaVuSans-63" transform="translate(2803.662109 0)"/>
     <use xlink:href="#DejaVuSans-6f" transform="translate(2858.642578 0)"/>
     <use xlink:href="#DejaVuSans-6d" transform="translate(2919.824219 0)"/>
     <use xlink:href="#DejaVuSans-70" transform="translate(3017.236328 0)"/>
     <use xlink:href="#DejaVuSans-6c" transform="translate(3080.712891 0)"/>
     <use xlink:href="#DejaVuSans-65" transform="translate(3108.496094 0)"/>
     <use xlink:href="#DejaVuSans-74" transform="translate(3170.019531 0)"/>
     <use xlink:href="#DejaVuSans-65" transform="translate(3209.228516 0)"/>
     <use xlink:href="#DejaVuSans-64" transform="translate(3270.751953 0)"/>
     <use xlink:href="#DejaVuSans-20" transform="translate(3334.228516 0)"/>
     <use xlink:href="#DejaVuSans-52" transform="translate(3366.015625 0)"/>
     <use xlink:href="#DejaVuSans-50" transform="translate(3435.498047 0)"/>
     <use xlink:href="#DejaVuSans-53" transform="translate(3495.800781 0)"/>
     <use xlink:href="#DejaVuSans-20" transform="translate(3559.277344 0)"/>
     <use xlink:href="#DejaVuSans-76" transform="translate(3591.064453 0)"/>
     <use xlink:href="#DejaVuSans-73" transform="translate(3650.244141 0)"/>
     <use xlink:href="#DejaVuSans-2e" transform="translate(3702.34375 0)"/>
     <use xlink:href="#DejaVuSans-20" transform="translate(3734.130859 0)"/>
     <use xlink:href="#DejaVuSans-74" transform="translate(3765.917969 0)"/>
     <use xlink:href="#DejaVuSans-69" transform="translate(3805.126953 0)"/>
     <use xlink:href="#DejaVuSans-6d" transform="translate(3832.910156 0)"/>
     <use xlink:href="#DejaVuSans-65" transform="translate(3930.322266 0)"/>
     <use xlink:href="#DejaVuSans-20" transform="translate(3991.845703 0)"/>
     <use xlink:href="#DejaVuSans-28" transform="translate(4023.632812 0)"/>
     <use xlink:href="#DejaVuSans-31" transform="translate(4062.646484 0)"/>
     <use xlink:href="#DejaVuSans-20" transform="translate(4126.269531 0)"/>
     <use xlink:href="#DejaVuSans-73" transform="translate(4158.056641 0)"/>
     <use xlink:href="#DejaVuSans-20" transform="translate(4210.15625 0)"/>
     <use xlink:href="#DejaVuSans-62" transform="translate(4241.943359 0)"/>
     <use xlink:href="#DejaVuSans-69" transform="translate(4305.419922 0)"/>
     <use xlink:href="#DejaVuSans-6e" transform="translate(4333.203125 0)"/>
     <use xlink:href="#DejaVuSans-73" transform="translate(4396.582031 0)"/>
     <use xlink:href="#DejaVuSans-29" transform="translate(4448.681641 0)"/>
    </g>
   </g>
   <g id="legend_1">
    <g id="patch_8">
     <path d="M 509.14449 77.506513 
L 684.565179 77.506513 
Q 686.231179 77.506513 686.231179 75.840513 
L 686.231179 27.766 
Q 686.231179 26.1 684.565179 26.1 
L 509.14449 26.1 
Q 507.47849 26.1 507.47849 27.766 
L 507.47849 75.840513 
Q 507.47849 77.506513 509.14449 77.506513 
z
" style="fill: #ffffff; opacity: 0.9; stroke: #cccccc; stroke-linejoin: miter"/>
    </g>
    <g id="line2d_27">
     <path d="M 510.81049 32.845998 
L 519.14049 32.845998 
L 527.47049 32.845998 
" style="fill: none; stroke: #1f77b4; stroke-opacity: 0.9; stroke-width: 1.6; stroke-linecap: square"/>
    </g>
    <g id="text_16">
     <!-- ab (closed loop) -->
     <g transform="translate(534.13449 35.761498) scale(0.0833 -0.0833)">
      <use xlink:href="#DejaVuSans-61"/>
      <use xlink:href="#DejaVuSans-62" transform="translate(61.279297 0)"/>
      <use xlink:href="#DejaVuSans-20" transform="translate(124.755859 0)"/>
      <use xlink:href="#DejaVuSans-28" transform="translate(156.542969 0)"/>
      <use xlink:href="#DejaVuSans-63" transform="translate(195.556641 0)"/>
      <use xlink:href="#DejaVuSans-6c" transform="translate(250.537109 0)"/>
      <use xlink:href="#DejaVuSans-6f" transform="translate(278.320312 0)"/>
      <use xlink:href="#DejaVuSans-73" transform="translate(339.501953 0)"/>
      <use xlink:href="#DejaVuSans-65" transform="translate(391.601562 0)"/>
      <use xlink:href="#DejaVuSans-64" transform="translate(453.125 0)"/>
      <use xlink:href="#DejaVuSans-20" transform="translate(516.601562 0)"/>
      <use xlink:href="#DejaVuSans-6c" transform="translate(548.388672 0)"/>
      <use xlink:href="#DejaVuSans-6f" transform="translate(576.171875 0)"/>
      <use xlink:href="#DejaVuSans-6f" transform="translate(637.353516 0)"/>
      <use xlink:href="#DejaVuSans-70" transform="translate(698.535156 0)"/>
      <use xlink:href="#DejaVuSans-29" transform="translate(762.011719 0)"/>
     </g>
    </g>
    <g id="line2d_28">
     <path d="M 510.81049 45.072877 
L 519.14049 45.072877 
L 527.47049 45.072877 
" style="fill: none; stroke: #ff7f0e; stroke-opacity: 0.9; stroke-width: 1.6; stroke-linecap: square"/>
    </g>
    <g id="text_17">
     <!-- k6 constant-vus (closed loop) -->
     <g transform="translate(534.13449 47.988377) scale(0.0833 -0.0833)">
      <defs>
       <path id="DejaVuSans-6b" d="M 581 4863 
L 1159 4863 
L 1159 1991 
L 2875 3500 
L 3609 3500 
L 1753 1863 
L 3688 0 
L 2938 0 
L 1159 1709 
L 1159 0 
L 581 0 
L 581 4863 
z
" transform="scale(0.015625)"/>
       <path id="DejaVuSans-2d" d="M 313 2009 
L 1997 2009 
L 1997 1497 
L 313 1497 
L 313 2009 
z
" transform="scale(0.015625)"/>
      </defs>
      <use xlink:href="#DejaVuSans-6b"/>
      <use xlink:href="#DejaVuSans-36" transform="translate(57.910156 0)"/>
      <use xlink:href="#DejaVuSans-20" transform="translate(121.533203 0)"/>
      <use xlink:href="#DejaVuSans-63" transform="translate(153.320312 0)"/>
      <use xlink:href="#DejaVuSans-6f" transform="translate(208.300781 0)"/>
      <use xlink:href="#DejaVuSans-6e" transform="translate(269.482422 0)"/>
      <use xlink:href="#DejaVuSans-73" transform="translate(332.861328 0)"/>
      <use xlink:href="#DejaVuSans-74" transform="translate(384.960938 0)"/>
      <use xlink:href="#DejaVuSans-61" transform="translate(424.169922 0)"/>
      <use xlink:href="#DejaVuSans-6e" transform="translate(485.449219 0)"/>
      <use xlink:href="#DejaVuSans-74" transform="translate(548.828125 0)"/>
      <use xlink:href="#DejaVuSans-2d" transform="translate(588.037109 0)"/>
      <use xlink:href="#DejaVuSans-76" transform="translate(621.496094 0)"/>
      <use xlink:href="#DejaVuSans-75" transform="translate(680.675781 0)"/>
      <use xlink:href="#DejaVuSans-73" transform="translate(744.054688 0)"/>
      <use xlink:href="#DejaVuSans-20" transform="translate(796.154297 0)"/>
      <use xlink:href="#DejaVuSans-28" transform="translate(827.941406 0)"/>
      <use xlink:href="#DejaVuSans-63" transform="translate(866.955078 0)"/>
      <use xlink:href="#DejaVuSans-6c" transform="translate(921.935547 0)"/>
      <use xlink:href="#DejaVuSans-6f" transform="translate(949.71875 0)"/>
      <use xlink:href="#DejaVuSans-73" transform="translate(1010.900391 0)"/>
      <use xlink:href="#DejaVuSans-65" transform="translate(1063 0)"/>
      <use xlink:href="#DejaVuSans-64" transform="translate(1124.523438 0)"/>
      <use xlink:href="#DejaVuSans-20" transform="translate(1188 0)"/>
      <use xlink:href="#DejaVuSans-6c" transform="translate(1219.787109 0)"/>
      <use xlink:href="#DejaVuSans-6f" transform="translate(1247.570312 0)"/>
      <use xlink:href="#DejaVuSans-6f" transform="translate(1308.751953 0)"/>
      <use xlink:href="#DejaVuSans-70" transform="translate(1369.933594 0)"/>
      <use xlink:href="#DejaVuSans-29" transform="translate(1433.410156 0)"/>
     </g>
    </g>
    <g id="line2d_29">
     <path d="M 510.81049 57.299755 
L 519.14049 57.299755 
L 527.47049 57.299755 
" style="fill: none; stroke: #2ca02c; stroke-opacity: 0.9; stroke-width: 1.6; stroke-linecap: square"/>
    </g>
    <g id="text_18">
     <!-- Vegeta (open loop) -->
     <g transform="translate(534.13449 60.215255) scale(0.0833 -0.0833)">
      <defs>
       <path id="DejaVuSans-56" d="M 1831 0 
L 50 4666 
L 709 4666 
L 2188 738 
L 3669 4666 
L 4325 4666 
L 2547 0 
L 1831 0 
z
" transform="scale(0.015625)"/>
       <path id="DejaVuSans-67" d="M 2906 1791 
Q 2906 2416 2648 2759 
Q 2391 3103 1925 3103 
Q 1463 3103 1205 2759 
Q 947 2416 947 1791 
Q 947 1169 1205 825 
Q 1463 481 1925 481 
Q 2391 481 2648 825 
Q 2906 1169 2906 1791 
z
M 3481 434 
Q 3481 -459 3084 -895 
Q 2688 -1331 1869 -1331 
Q 1566 -1331 1297 -1286 
Q 1028 -1241 775 -1147 
L 775 -588 
Q 1028 -725 1275 -790 
Q 1522 -856 1778 -856 
Q 2344 -856 2625 -561 
Q 2906 -266 2906 331 
L 2906 616 
Q 2728 306 2450 153 
Q 2172 0 1784 0 
Q 1141 0 747 490 
Q 353 981 353 1791 
Q 353 2603 747 3093 
Q 1141 3584 1784 3584 
Q 2172 3584 2450 3431 
Q 2728 3278 2906 2969 
L 2906 3500 
L 3481 3500 
L 3481 434 
z
" transform="scale(0.015625)"/>
      </defs>
      <use xlink:href="#DejaVuSans-56"/>
      <use xlink:href="#DejaVuSans-65" transform="translate(60.658203 0)"/>
      <use xlink:href="#DejaVuSans-67" transform="translate(122.181641 0)"/>
      <use xlink:href="#DejaVuSans-65" transform="translate(185.658203 0)"/>
      <use xlink:href="#DejaVuSans-74" transform="translate(247.181641 0)"/>
      <use xlink:href="#DejaVuSans-61" transform="translate(286.390625 0)"/>
      <use xlink:href="#DejaVuSans-20" transform="translate(347.669922 0)"/>
      <use xlink:href="#DejaVuSans-28" transform="translate(379.457031 0)"/>
      <use xlink:href="#DejaVuSans-6f" transform="translate(418.470703 0)"/>
      <use xlink:href="#DejaVuSans-70" transform="translate(479.652344 0)"/>
      <use xlink:href="#DejaVuSans-65" transform="translate(543.128906 0)"/>
      <use xlink:href="#DejaVuSans-6e" transform="translate(604.652344 0)"/>
      <use xlink:href="#DejaVuSans-20" transform="translate(668.03125 0)"/>
      <use xlink:href="#DejaVuSans-6c" transform="translate(699.818359 0)"/>
      <use xlink:href="#DejaVuSans-6f" transform="translate(727.601562 0)"/>
      <use xlink:href="#DejaVuSans-6f" transform="translate(788.783203 0)"/>
      <use xlink:href="#DejaVuSans-70" transform="translate(849.964844 0)"/>
      <use xlink:href="#DejaVuSans-29" transform="translate(913.441406 0)"/>
     </g>
    </g>
    <g id="line2d_30">
     <path d="M 510.81049 69.526633 
L 519.14049 69.526633 
L 527.47049 69.526633 
" style="fill: none; stroke: #d62728; stroke-opacity: 0.9; stroke-width: 1.6; stroke-linecap: square"/>
    </g>
    <g id="text_19">
     <!-- k6 constant-arrival-rate (open loop) -->
     <g transform="translate(534.13449 72.442133) scale(0.0833 -0.0833)">
      <use xlink:href="#DejaVuSans-6b"/>
      <use xlink:href="#DejaVuSans-36" transform="translate(57.910156 0)"/>
      <use xlink:href="#DejaVuSans-20" transform="translate(121.533203 0)"/>
      <use xlink:href="#DejaVuSans-63" transform="translate(153.320312 0)"/>
      <use xlink:href="#DejaVuSans-6f" transform="translate(208.300781 0)"/>
      <use xlink:href="#DejaVuSans-6e" transform="translate(269.482422 0)"/>
      <use xlink:href="#DejaVuSans-73" transform="translate(332.861328 0)"/>
      <use xlink:href="#DejaVuSans-74" transform="translate(384.960938 0)"/>
      <use xlink:href="#DejaVuSans-61" transform="translate(424.169922 0)"/>
      <use xlink:href="#DejaVuSans-6e" transform="translate(485.449219 0)"/>
      <use xlink:href="#DejaVuSans-74" transform="translate(548.828125 0)"/>
      <use xlink:href="#DejaVuSans-2d" transform="translate(588.037109 0)"/>
      <use xlink:href="#DejaVuSans-61" transform="translate(624.121094 0)"/>
      <use xlink:href="#DejaVuSans-72" transform="translate(685.400391 0)"/>
      <use xlink:href="#DejaVuSans-72" transform="translate(724.763672 0)"/>
      <use xlink:href="#DejaVuSans-69" transform="translate(765.876953 0)"/>
      <use xlink:href="#DejaVuSans-76" transform="translate(793.660156 0)"/>
      <use xlink:href="#DejaVuSans-61" transform="translate(852.839844 0)"/>
      <use xlink:href="#DejaVuSans-6c" transform="translate(914.119141 0)"/>
      <use xlink:href="#DejaVuSans-2d" transform="translate(941.902344 0)"/>
      <use xlink:href="#DejaVuSans-72" transform="translate(977.986328 0)"/>
      <use xlink:href="#DejaVuSans-61" transform="translate(1019.099609 0)"/>
      <use xlink:href="#DejaVuSans-74" transform="translate(1080.378906 0)"/>
      <use xlink:href="#DejaVuSans-65" transform="translate(1119.587891 0)"/>
      <use xlink:href="#DejaVuSans-20" transform="translate(1181.111328 0)"/>
      <use xlink:href="#DejaVuSans-28" transform="translate(1212.898438 0)"/>
      <use xlink:href="#DejaVuSans-6f" transform="translate(1251.912109 0)"/>
      <use xlink:href="#DejaVuSans-70" transform="translate(1313.09375 0)"/>
      <use xlink:href="#DejaVuSans-65" transform="translate(1376.570312 0)"/>
      <use xlink:href="#DejaVuSans-6e" transform="translate(1438.09375 0)"/>
      <use xlink:href="#DejaVuSans-20" transform="translate(1501.472656 0)"/>
      <use xlink:href="#DejaVuSans-6c" transform="translate(1533.259766 0)"/>
      <use xlink:href="#DejaVuSans-6f" transform="translate(1561.042969 0)"/>
      <use xlink:href="#DejaVuSans-6f" transform="translate(1622.224609 0)"/>
      <use xlink:href="#DejaVuSans-70" transform="translate(1683.40625 0)"/>
      <use xlink:href="#DejaVuSans-29" transform="translate(1746.882812 0)"/>
     </g>
    </g>
   </g>
  </g>
 </g>
 <defs>
  <clipPath id="p162ee75a05">
   <rect x="57.2" y="26.1" width="441.4495" height="400.3"/>
  </clipPath>
 </defs>
</svg>
